<?xml version="1.0" encoding="utf-8"?>
<!-- Generator: Adobe Illustrator 22.1.0, SVG Export Plug-In . SVG Version: 6.00 Build 0)  -->
<svg version="1.1" id="Layer_1" xmlns="http://www.w3.org/2000/svg" xmlns:xlink="http://www.w3.org/1999/xlink" x="0px" y="0px"
	 viewBox="0 0 594.7 737.4" style="enable-background:new 0 0 594.7 737.4;" xml:space="preserve">
<style type="text/css">
	.st0{fill:#422D26;}
	.st1{fill:#7B5232;}
	.st2{fill:#9F714D;}
	.st3{fill:#7C5235;}
	.st4{fill:#6B4328;}
	.st5{fill:#93827F;}
	.st6{fill:#494241;}
	.st7{fill:#BCB2B0;}
	.st8{fill:#87807E;}
	.st9{fill:#968D8A;}
	.st10{fill:#604F37;}
	.st11{fill:#9D712A;}
	.st12{fill:#BF9C5D;}
	.st13{fill:#606060;}
	.st14{fill:none;}
	.st15{fill:#C6B361;}
	.st16{fill:#EDDC8B;}
	.st17{fill:#342D1A;}
	.st18{fill:#FFFFFF;}
	.st19{fill:#302F2A;}
	.st20{fill:#706F70;}
	.st21{fill:#5E5F5F;}
	.st22{fill:#6E7372;}
	.st23{fill:#D8D7D3;}
	.st24{fill:#774E1F;}
	.st25{fill:#B78139;}
	.st26{fill:#EABD7C;}
	.st27{fill:#B0AFAF;}
	.st28{fill:#DCD2D1;}
	.st29{fill:#706563;}
	.st30{fill:#515251;}
	.st31{fill:#B7B7B7;}
	.st32{fill:#2D2D2D;}
</style>
<g>
	<g>
		<g>
			<path class="st0" d="M366.3,638.1c-0.3,0.3-0.5,0.7-0.6,1.2c-0.6,1.6-1.1,3.4-0.5,5c0.6,1.6,2.3,2.7,4,3.1
				c1.7,0.4,3.5,0.4,5.2,0.5c3.9,0.2,8.1,1.6,10.1,4.9c1.1-0.3,1.5-1.6,1.6-2.7c0.1-2.1-0.9-4.1-2.2-5.6c-1.3-1.6-3.1-2.7-4.9-3.8
				c-1.6-0.9-3.2-1.7-4.8-2.3c-2.1-0.9-4.5-1.5-6.7-0.9C367,637.6,366.6,637.8,366.3,638.1z"/>
			<path class="st1" d="M278.2,651.6c6.7-1.9,13.4-3.8,19.4-7.4c5.9-3.6,19.4-16.6,20.9-23.4c-8.6,9.1-30.4,19.2-42.9,19.9
				s-27-0.1-38.8,4.4c-5.9,5.5-3.3,14.6,2,16.6c2.4,0.5,4.9-0.2,7.3-0.9C256.7,657.7,267.4,654.7,278.2,651.6z"/>
			<path class="st2" d="M284.1,703.5c1.5-0.6,2.7-1.7,3.9-2.8c3.2-2.9,6.4-5.7,9.6-8.6c14.2-12.8,24.8-28.6,35.5-44.4
				c1-1.5,2-3,3.5-4c1.5-0.9,3.2-1.2,4.9-1.3c9.3-0.9,22.6,3.4,31.3,7c0.8,0.3,1.6,0.7,2.4,0.5s1.4-0.8,1.8-1.5
				c2.3-3.7,0.4-8.9-3-11.6c-3.4-2.7-7.9-3.6-12.2-4.4c-5.7-1.1-15-3.9-20.7-5c-0.8-0.1-1.6-0.3-2-0.9c-0.5-0.7-0.4-1.6-0.2-2.5
				c1.1-6,3-11.8,4.9-17.6c5.3-16.7,9.9-33.7,13.8-50.8c-3.6-1.5-3.7-1.3-7.6-1.7c-3.9-0.4-8.1,0.7-10.7,3.6
				c-1.3,1.5-2.1,3.3-2.9,5.2c-4.3,9.9-7.1,20.5-10.1,30.8c-1.6,5.4-3.2,10.8-4.8,16.2c-2,7-3.8,12.6-8.9,17.9
				c-8.5,8.8-23.2,22.6-34.8,28.4c-2.9,1.4-49.3,16.9-48.9,20.3c0.1,1,1.5,1.8,1.2,2.8c-1.6,5.7,0.6,11.7,8.1,13.3
				c15.8-8,32.4-14.4,47.6-23.5s21.4-12.5,32.1-28.3c-4.4,11.9-6.8,13.7-14.6,23.6c-7.8,10-18.2,18.3-30.4,21.9
				c-1.6,0.5-3.4,1-4.2,2.5c-1,1.9,0.1,4.2,1.3,6c1.6,2.6,3.3,5.2,5.7,7.1S281.3,704.6,284.1,703.5z"/>
			<g>
				<g>
					<g>
						<path class="st3" d="M305.1,647.2c-21.6,15.9-46.6,26.6-71.3,37.1c-1.2,0.5-2.4,1-3.7,1.4c1,3.1,3.6,5.6,8,6.5
							c15.8-8,32.4-14.4,47.6-23.5c13.6-8.2,20.1-11.8,29-23.9c0.9-1.3,1.7-2.5,2.5-3.8C312.6,641.5,308.8,644.5,305.1,647.2z"/>
					</g>
					<g>
						<path class="st4" d="M238.7,661.6c2.4,0.5,4.9-0.2,7.3-0.9c10.7-3,21.4-6.1,32.1-9.1c2.8-0.8,5.6-1.6,8.3-2.5
							c3.4-1.9,6.6-4.1,9.6-6.7c-19,6.1-38.8,9.9-58.7,11.3c-1.3,0.1-2.7,0.1-4.1-0.2C233.6,657.2,235.7,660.5,238.7,661.6z"/>
					</g>
					<g>
						<path class="st3" d="M329.6,642.1c-1,0.3-1.7,1.1-2.3,2c-3.9,5.4-6.5,11.5-9.9,17.2c-7,11.8-17.1,21.3-27.1,30.7
							c-3.2,3-6.4,6.1-10.4,7.9c-1.5,0.7-3.1,1.2-4.7,1.5c0.1,0.1,0.2,0.2,0.3,0.2c2.4,1.9,5.7,2.9,8.6,1.8c1.5-0.6,2.7-1.7,3.9-2.8
							c3.2-2.9,6.4-5.7,9.6-8.6c14.2-12.8,24.8-28.6,35.5-44.4c0.8-1.2,1.6-2.4,2.6-3.3c-0.7-0.4-1.5-0.8-2.2-1.2
							C332.3,642.5,331,641.7,329.6,642.1z"/>
					</g>
					<g>
						<path class="st3" d="M349.5,568.5c-7.2,17.4-12.7,35.5-16.3,53.9c-0.5,2.8-1,5.9,0.3,8.4c1.5,2.9,4.9,4.2,8.1,4.8
							c10.6,2.3,21.9,0.6,32.2,4c1.2,0.4,2.5,1,3.6,1.7c-0.7-1.8-1.9-3.4-3.4-4.6c-3.4-2.7-7.9-3.6-12.2-4.4c-5.7-1.1-15-3.9-20.7-5
							c-0.8-0.1-1.6-0.3-2-0.9c-0.5-0.7-0.4-1.6-0.2-2.5c1.1-6,3-11.8,4.9-17.6c4-12.7,7.7-25.6,10.9-38.6c-0.7,0.3-1.5,0.5-2.2,0.9
							C351.5,569.1,350,569.5,349.5,568.5z"/>
					</g>
				</g>
			</g>
			<path class="st0" d="M238.3,674.2c0.6,0.3,1.1,0.8,1.6,1.4c1.8,2.1,3.5,4.4,3.6,7.1c0,2.8-1.8,5.2-4,6.8s-4.9,2.5-7.4,3.7
				c-5.6,2.6-11,6.9-11.9,13c-1.7,0.2-3.1-1.4-3.8-3c-1.3-3-1.1-6.5,0-9.5c1.1-3.1,2.9-5.8,5-8.3c1.8-2.2,3.7-4.3,5.8-6.2
				c2.6-2.5,5.7-4.8,9.3-5.2C237,673.9,237.6,673.9,238.3,674.2z"/>
			<path class="st0" d="M270.8,692.7c0.5-0.1,1,0.1,1.5,0.3c1.8,0.7,3.8,1.5,4.8,3.2s0.8,3.9-0.1,5.7c-0.8,1.8-2.1,3.3-3.3,5
				c-2.6,3.6-4.4,8.3-2.8,12.4c-1,0.7-2.5,0.3-3.5-0.5c-1.9-1.4-3-3.7-3.4-6c-0.4-2.3-0.2-4.7,0.1-7c0.3-2,0.8-4,1.4-6
				c0.8-2.5,1.8-5.1,4-6.6C269.9,693,270.3,692.8,270.8,692.7z"/>
			<path class="st0" d="M240.3,648.3c0.4,0.4,0.5,0.9,0.7,1.5c0.6,2,1,4.2,0.2,6.1c-0.9,1.9-3,3.1-5.1,3.5s-4.2,0.2-6.4,0.2
				c-4.7,0-10,1.3-12.6,5.2c-1.3-0.4-1.7-2-1.7-3.4c0.1-2.5,1.4-4.9,3.1-6.7c1.8-1.8,4-3.1,6.2-4.2c2-1,4-1.8,6.1-2.5
				c2.7-0.9,5.6-1.5,8.2-0.6C239.5,647.7,240,647.9,240.3,648.3z"/>
		</g>
		<g>
			<path class="st0" d="M288.4,599c-0.3,0.2-0.5,0.6-0.6,1c-0.6,1.3-1.1,2.8-0.7,4.3c0.4,1.4,1.8,2.4,3.2,2.9s2.9,0.6,4.4,0.8
				c3.3,0.5,6.8,1.9,8.3,4.9c0.9-0.2,1.4-1.2,1.5-2.2c0.2-1.8-0.5-3.5-1.5-5c-1-1.4-2.4-2.6-3.9-3.6c-1.3-0.9-2.6-1.6-4-2.3
				c-1.8-0.9-3.7-1.6-5.7-1.2C289.1,598.7,288.7,598.8,288.4,599z"/>
			<path class="st1" d="M212.2,604.5c5.8-1.2,11.7-2.4,17.1-5c5.3-2.7,17.7-12.9,19.4-18.6c-8,7.2-27.3,14.3-38.1,14
				c-10.8-0.3-23.1-1.9-33.5,1.1c-5.4,4.3-3.8,12.3,0.6,14.4c2,0.6,4.2,0.2,6.3-0.3C193.4,608.3,202.8,606.4,212.2,604.5z"/>
			<path class="st2" d="M213.7,649.3c1.3-0.4,2.5-1.2,3.6-2.1c2.9-2.2,5.9-4.5,8.8-6.7c13.1-9.9,23.2-22.7,33.4-35.6
				c0.9-1.2,1.9-2.4,3.3-3.1c1.3-0.7,2.8-0.8,4.3-0.8c8-0.1,19.1,4.5,26.3,8.2c0.6,0.3,1.3,0.7,2,0.6c0.7-0.1,1.2-0.6,1.7-1.1
				c2.3-3,1-7.6-1.8-10.1c-2.7-2.6-6.5-3.6-10.2-4.6c-4.8-1.3-12.6-4.4-17.4-5.7c-0.6-0.2-1.3-0.4-1.7-0.9c-0.4-0.6-0.2-1.4,0-2.1
				c1.4-5,3.4-9.9,5.4-14.7c5.7-13.9,10.8-28.1,15.3-42.5c-3-1.6-3-1.4-6.3-1.9c-3.3-0.6-7,0-9.4,2.3c-1.2,1.2-2,2.7-2.8,4.2
				c-4.3,8.2-7.5,17-10.7,25.7c-1.7,4.5-3.5,9-5.2,13.5c-2.2,5.8-4.1,10.5-8.8,14.7c-7.9,7-21.4,17.7-31.7,21.9
				c-2.5,1-43.4,11-43.2,14c0,0.9,1.2,1.7,0.9,2.5c-1.7,4.8-0.3,10.1,6,12c14-5.8,28.7-10.1,42.3-16.8s19.2-9.2,29.4-22
				c-4.6,9.8-6.7,11.2-14.1,19.2s-16.8,14.4-27.5,16.6c-1.4,0.3-3,0.6-3.8,1.8c-1,1.5-0.2,3.6,0.7,5.2c1.2,2.3,2.5,4.7,4.4,6.5
				S211.2,650,213.7,649.3z"/>
			<g>
				<path class="st3" d="M274.1,544.4c-5.9,12-11.2,24.3-16,36.7c-0.7,1.7-1.3,3.5-1.3,5.4c0.1,3.9,3.5,7.1,7.2,8.5
					s7.7,1.4,11.7,1.8c6.2,0.7,12.3,2.4,17.8,5.2c1.6,0.8,3.3,1.7,4.5,3c0-2.4-1.1-4.9-2.9-6.6c-2.7-2.6-6.5-3.6-10.2-4.6
					c-4.8-1.3-12.6-4.4-17.4-5.7c-0.6-0.2-1.3-0.4-1.7-0.9c-0.4-0.6-0.2-1.4,0-2.1c1.4-5,3.4-9.9,5.4-14.7c3.4-8.2,6.5-16.6,9.5-25
					C278.9,543.9,276.2,543.1,274.1,544.4z"/>
				<path class="st3" d="M245.4,595.8c-21.7,12.8-44.5,24-67.9,33.3c-2.6,1-5.4,2.1-8.1,1.5c-0.2,0-0.4-0.1-0.6-0.2
					c0.7,2.7,2.7,5,6.4,6.1c14-5.8,28.7-10.1,42.3-16.8c6.6-3.3,11.3-5.6,15.6-8.5c1.1-0.9,2.1-1.8,3.2-2.7
					C240.2,605.1,244.5,601.1,245.4,595.8z"/>
				<path class="st4" d="M177.7,610.4c2,0.6,4.2,0.2,6.3-0.3c9.4-1.9,18.7-3.7,28.1-5.6c1.8-0.4,3.7-0.7,5.5-1.1
					c1.6-0.9,3.1-1.9,4.5-3.2c-6.8-2.3-14.1-0.3-21.2,0.6c-9,1.1-18.1,0.3-27.1,0.9C173.2,605.4,174.9,609.1,177.7,610.4z"/>
				<path class="st3" d="M257.9,600.6c-2.1,0.1-4,1.2-5.6,2.4c-5.9,4.2-9.8,10.5-14.4,16.1c-8.1,9.7-18.4,17.3-28.9,24.4
					c-1.2,0.8-2.5,1.7-3.9,2.3c0.4,0.5,0.9,1,1.4,1.5c1.9,1.8,4.7,2.9,7.2,2.1c1.3-0.4,2.5-1.2,3.6-2.1c2.9-2.2,5.9-4.5,8.8-6.7
					c13.1-9.9,23.2-22.7,33.4-35.6c0.9-1.2,1.9-2.4,3.3-3.1c0,0,0.1,0,0.1-0.1C261.3,600.9,259.7,600.4,257.9,600.6z"/>
			</g>
			<path class="st0" d="M180,599.1c0.3,0.4,0.4,0.8,0.5,1.3c0.3,1.8,0.6,3.7-0.3,5.3s-2.8,2.4-4.6,2.6c-1.8,0.2-3.6-0.1-5.5-0.3
				c-4.1-0.4-8.6,0.4-11.2,3.6c-1.1-0.5-1.3-1.8-1.2-3c0.3-2.1,1.5-4.1,3.1-5.5s3.6-2.4,5.6-3.2c1.8-0.7,3.5-1.2,5.4-1.7
				c2.3-0.6,4.9-0.9,7.1,0.1C179.4,598.5,179.7,598.7,180,599.1z"/>
			<path class="st0" d="M176.5,621.1c0.5,0.3,0.9,0.8,1.3,1.3c1.4,1.9,2.7,4,2.6,6.3c-0.2,2.4-1.9,4.4-3.9,5.6
				c-2,1.2-4.3,1.8-6.6,2.7c-4.9,1.8-9.9,5.2-11.1,10.3c-1.5,0-2.6-1.4-3.1-2.8c-0.9-2.6-0.5-5.6,0.7-8.1s2.9-4.8,4.8-6.8
				c1.7-1.8,3.5-3.4,5.4-4.9c2.4-1.9,5.2-3.7,8.3-3.8C175.4,620.7,176,620.8,176.5,621.1z"/>
			<path class="st0" d="M203,639.2c0.4,0,0.8,0.2,1.2,0.3c1.5,0.7,3.1,1.5,3.9,3c0.7,1.5,0.4,3.4-0.4,4.9s-2.1,2.7-3.1,4
				c-2.4,2.9-4.3,6.8-3.2,10.4c-0.9,0.6-2.1,0-2.9-0.7c-1.5-1.3-2.3-3.3-2.5-5.3s0.1-4,0.6-6c0.4-1.7,1-3.4,1.6-5
				c0.8-2.1,1.9-4.2,3.8-5.3C202.2,639.4,202.6,639.2,203,639.2z"/>
		</g>
		<path class="st5" d="M315.2,519.4c4-6,7.6-12.8,7.4-20c-0.2-5.4-2.5-10.5-5.6-15c-13.4-19.3-38.2-14.8-61.6-14.5
			c-6.2,0.1-14.9-9-16.4-3.1c-0.8,3.2,0.6,6.6,1.9,9.7c6.7,15.9,11.2,32.6,13.5,49.7c1,7.6,1.9,16.1,7.6,21.2
			c4.8,4.3,12.1,5.1,18.4,3.3s11.6-5.8,16.4-10.2C303.7,534.3,309.9,527.2,315.2,519.4z"/>
		<path class="st6" d="M322.6,499.4c-0.2-5.4-2.5-10.5-5.6-15c-13.4-19.3-38.2-14.8-61.6-14.5c-6.2,0.1-14.9-9-16.4-3.1
			c-0.8,3.2,0.6,6.6,1.9,9.7c0.1,0.1,0.1,0.3,0.2,0.4c11.7,3.5,23.8,6.5,34.9,11.3c9.4,4,16.4,12.5,13.2,23.2
			c-3.9,13.3-16.7,30.7-30.7,31.6c0.9,1.6,2,3.1,3.5,4.4c4.8,4.3,12.1,5.1,18.4,3.3c6.2-1.8,11.6-5.8,16.4-10.2
			c7-6.3,13.3-13.5,18.5-21.3C319.3,513.4,322.9,506.6,322.6,499.4z"/>
		<path class="st5" d="M530.3,310.4c-4.5-17.7-11.6-36.4-26-45.1c-9.9-6-21.6-4.6-31.3-9.7c-12-6.3-22.7-15.4-34.8-21.8
			c-37.3-19.7-78-30.5-120.3-30.3c-19.4,0.1-38.8,2.3-57.8,6.4c-17.2,3.7-35.5,14.1-52.3,3.7c-8.2-5.1-8-15.1-3.7-22.7
			c2.4-4.2,6.5-7.6,9.7-11.2c25.2-27.4,41.8-66.8,32.6-104.2c-6.1-24.8-25.7-43.7-49.1-52.8c-21.5-8.4-54-11.8-70.8,7.6
			c-7,8-7.8,19.1-8.3,29.2c-0.2,4.4,3.1,6.5,6.5,6.5c1.5,0.6,3.2,0.8,4.7,0.3c2.6,16.4,5.2,32.8,7.9,49.3c1.3,8,2.5,16.6-0.8,24.1
			c-3.7,8.4-12.3,13.4-20.1,18.4c-92.5,59.3-82.8,196.1-13.9,260.8c34.5,32.4,98,45.4,142.9,55.9c29.8,7,74.3,15.7,79.2,52.6
			c1.2,8.9-0.9,18-0.1,26.9c0.9,8.9,6.3,18.7,15.2,19.6c5.3,0.6,10.3-2.1,14.6-5.3c19.1-13.9,29.3-37.8,30.6-61.4
			c0.3-5.2,0.3-10.9,3.5-15c2.2-2.9,5.6-4.6,9-6.2c25.7-12,52.8-0.9,77.6-14.7s47.7-33.5,57.8-60c9.8-25.6,7.5-54.5,1.8-80.7
			C533.6,324.5,532.2,317.5,530.3,310.4z"/>
		<path class="st7" d="M107.4,123.8c-14,5.5-24.8,17.1-38.2,24c-6.2,3.2-14.4,5.2-19.9,0.9c-3.1-2.4-4.6-6.3-5-10.2
			c-0.3-3.9,0.5-7.7,1.3-11.5c1.9-7.9,4.3-15.8,8.4-22.8c1.9-3.2,4.1-6.3,6.4-9.3c5-6.7,10.1-13.5,17.2-17.9c5-3.2,10.8-5,16.1-7.7
			c15.7-8.1,26.7-24,43.3-30c13-4.7,28.2-2.4,39.9,5.1c11.7,7.5,19.9,19.8,23.7,33.1c0.8,2.7,1.4,5.5,1.6,8.3
			c1.1,10.9-2.8,22-9.7,30.5c-6.9,8.5-16.7,14.4-27.2,17.5c-9.4,2.8-20.2,3.2-28.4-2.1c-4.3-2.8-7.7-7.1-12.5-9.1
			C119.1,120.5,112.9,121.7,107.4,123.8z"/>
		<g>
			<g>
				<g>
					<path class="st8" d="M60.5,94.9c-2.2,3-4.5,6-6.4,9.3c-4.1,7-6.6,14.9-8.4,22.8c-0.9,3.8-1.7,7.6-1.3,11.5
						c0.3,3.9,1.9,7.8,5,10.2c5.5,4.3,13.7,2.3,19.9-0.9c13.4-6.9,24.2-18.5,38.2-24c5.4-2.1,11.6-3.3,17-1.1
						c4.8,2,8.2,6.2,12.5,9.1c8.2,5.3,19,4.9,28.4,2.1c10.5-3.1,20.3-9,27.2-17.5c6.9-8.5,10.8-19.6,9.7-30.5
						c-0.3-2.8-0.9-5.6-1.6-8.3c-3.8-13.4-12-25.6-23.7-33.1s-26.8-9.9-39.9-5.1c-2.8,1-5.4,2.3-7.9,3.8
						c16.9-0.7,38.6,2.9,48.9,17.7c13.2,19,5.3,48.4-13.6,60.6c-5.6,3.6-12.4,6-19.1,4.9c-7.5-1.1-13.9-6.3-21.3-8
						c-10.7-2.4-21.5,2.8-31.3,7.8c0.3-7.3,4.7-14.1,10.6-18.4c5.9-4.3,13.3-6.4,20.6-6.9c11.8-0.9,23.9,2,34,8.1
						c-1.1-7.8-8.4-13.5-16.1-15.1c-7.7-1.6-15.6,0.2-23.2,2.3c-5.7,1.6-11.4,3.5-16.7,6.4c-11.4,6.2-20.6,17.1-33.3,19.8
						c1.2-10.4,3.4-20.6,6.8-30.5c1.7-5,3.6-10.3,3.4-15.5c-0.4,0.2-0.8,0.5-1.2,0.7C70.7,81.4,65.5,88.2,60.5,94.9z"/>
				</g>
			</g>
		</g>
		<path class="st9" d="M171.3,63.5c-2.2-2.3-5.9-1.6-9-1.9c-3.1-0.3-6-1.7-9-2.8s-6.4-1.6-9.2-0.3c-2.4,1.1-4.1,3.4-5,5.9
			c-0.9,2.5-1.1,5.2-1.3,7.8c-1,0-2-0.1-3-0.1c3.8,1.3,6.8,4.1,10.2,6.1s7.9,3.2,11.3,1.2c3.6-2.2,4.4-7,6.8-10.5
			C164.9,66.1,167.9,64.1,171.3,63.5z"/>
		<path class="st10" d="M143,95.7c-8.8-1.9-17.9-1.2-26.5,1.5c-12.5,4-20.2,9.9-27.8,16.4c-1.2,1-5.7,4-4.8,5.3
			c5.8-3.5,9.5-7.6,15.1-11.5c14.6-10.2,35.2-14.9,51.3-6.9c1.1,0.6,2.2,1.5,3.3,2.2c1.1,0.7,2.3-0.8,1.3-1.7
			C151.6,98.1,147.1,96.6,143,95.7z"/>
		<path class="st11" d="M51.3,146.5c0.8-2.4,3-4.5,5-6.2c10.8-8.9,21.6-17.8,32.4-26.7c1.2,9.3-2.4,29.4-10.1,35.6
			c-5.9,4.8-14.5,7.2-22,5.3c-2.7-0.7-5.2-2.8-5.6-5.5C50.9,148.1,51,147.3,51.3,146.5z"/>
		<path class="st12" d="M56.7,172.5c-0.2,1.6-27.8-8.8-34.6-37.7c-3.9-16.9-2.2-36.9,10-49.9C44.2,72,64.2,72.7,79.9,76.7
			c-1.8-0.4-11.8,27.3-12.8,30.2c-5.7,16-11.8,33.3-12.3,50.4c-0.1,2.6-0.2,5.4,0.4,7.9C55.8,167.7,57,169.8,56.7,172.5z"/>
		<path class="st13" d="M354.5,568.6c19.1-13.9,29.3-37.8,30.6-61.4c0.3-5.2,0.3-10.9,3.5-15c2.2-2.9,5.6-4.6,9-6.2
			c25.7-12,52.8-0.9,77.6-14.7s47.7-33.5,57.8-60c9.8-25.6,7.5-54.5,1.8-80.7c-1.3-6.1-2.7-13.1-4.6-20.2
			c-4.5-17.7-11.6-36.4-26-45.1c-9.9-6-21.6-4.6-31.3-9.7c-12-6.3-22.7-15.4-34.8-21.8c-37.3-19.7-78-30.5-120.3-30.3
			c-1.8,0-3.6,0.1-5.4,0.1c33.1,2.5,65.5,14.2,95.6,28.6c13,6.2,25.8,13,37.6,21.4c8.6,6.1,16.8,13.3,22.3,22.4s8.1,20.3,5.1,30.5
			c-0.9,3.2-2,7.5,0.9,9.1c1.4,0.7,3,0.4,4.6,0.6c5.6,0.7,8,7.2,8.9,12.8c7.2,44.6-16.3,92.2-55.6,114.6c-14.1,8-29.8,13-44.3,20.3
			c-14.5,7.4-28.4,17.9-34.6,32.9c-8.4,20.3-3.8,44.9-15.3,63.7c-1.9,3.1-4.1,6.6-5.5,10.1c2.1,1.8,4.7,3.1,7.6,3.4
			C345.2,574.4,350.2,571.7,354.5,568.6z"/>
		<path class="st14" d="M312.5,203.5c-8.2-0.6-16.4-0.7-24.7,0c-20.3,1.6-39.9,7.1-59.1,14.2c10.5-1.1,21.1-5.7,31.4-7.9
			C277.4,206.1,294.9,204,312.5,203.5z"/>
		<path class="st13" d="M198.8,219.3c0.1,3.1,1,6.9,4,7.7c1.6,0.4,3.3-0.2,4.8-0.9c7-2.9,14.1-5.8,21.2-8.4
			c-7.1,0.8-14.1,0-20.9-4.2c-6.4-4-7.7-11-5.9-17.5h-0.1C199.6,203.5,198.6,211.4,198.8,219.3z"/>
		<g>
			<ellipse transform="matrix(0.4641 -0.8858 0.8858 0.4641 20.4523 166.7089)" class="st15" cx="148" cy="66.5" rx="10" ry="10"/>
			<circle class="st16" cx="148" cy="66.5" r="8.3"/>
			<circle class="st17" cx="145.8" cy="64.7" r="3.5"/>
			<circle class="st18" cx="143.5" cy="63" r="1.5"/>
		</g>
		<path class="st19" d="M87.7,92.5c-4.9,0.9-9.2,4.4-11.2,9c-0.3,0.6-0.5,1.3-0.4,1.9c0.1,0.7,0.5,1.3,1.2,1.4
			c0.5,0.1,1-0.2,1.5-0.5c2.7-1.7,5.1-3.9,7.1-6.3C87.1,96.4,88.3,94.4,87.7,92.5z"/>
		<path class="st20" d="M247.7,272.7c-9.7,10.1-13.2,27.9-14.2,40.7c-2.3,31,10.6,57.7,27.1,83.1c5.5,8.5,11.1,17,18.4,24
			c4.1,4,8.8,7.4,13.4,10.8c25.8,18.6,55.5,35.8,87.2,33.4c1.3-0.1,2.5-0.2,3.7-0.7c3.7-1.5,5.3-6,5.8-10c1.4-12-2.5-24-7.6-35
			c-8.6-18.7-20.6-35.8-35.1-50.3c22.7-15.9,32.8-47.8,23.3-73.8c-3.9-10.7-11.1-20.7-21.3-25.7c-9.9-4.9-21.4-4.9-32.4-4.7
			c-16.8,0.2-33.7,0.4-50.5,0.7C257.9,265,252.2,268.1,247.7,272.7z"/>
		<path class="st21" d="M239.8,254.6c-9.7,10.1-13.2,27.9-14.2,40.7c-2.3,31,10.6,57.7,27.1,83.1c5.5,8.5,11.1,17,18.4,24
			c4.1,4,8.8,7.4,13.4,10.8c25.8,18.6,55.5,35.8,87.2,33.4c1.3-0.1,2.5-0.2,3.7-0.7c3.7-1.5,5.3-6,5.8-10c1.4-12-2.5-24-7.6-35
			c-8.6-18.7-20.6-35.8-35.1-50.3c22.7-15.9,32.8-47.8,23.3-73.8c-3.9-10.7-11.1-20.7-21.3-25.7c-9.9-4.9-21.4-4.9-32.4-4.7
			c-16.8,0.2-33.7,0.4-50.5,0.7C250.1,246.9,244.3,249.9,239.8,254.6z"/>
		<g>
			<path class="st22" d="M245.8,340.1c-0.2,0.1-0.4,0.2-0.5,0.3C245.4,340.3,245.6,340.2,245.8,340.1z"/>
			<path class="st23" d="M284.6,413.1c25.8,18.6,55.5,35.8,87.2,33.4c1.3-0.1,2.5-0.2,3.7-0.7c3.7-1.5,5.3-6,5.8-10
				c1.4-12-2.5-24-7.6-35c-8.6-18.7-20.6-35.8-35.1-50.3c22.7-15.9,32.8-47.8,23.3-73.8C358,266,350.8,256,340.6,251
				c-5.3-2.6-11-3.8-16.9-4.4c5.9,8.2,10,17.7,8.7,27.5c-2,16.3-17.3,27.2-31.2,36.1c-9.7,6.2-19.4,12.3-29.1,18.5
				c2.2-1.1,5,1.1,6.6,3.1c7.5,9.6,13.1,21.4,12.5,33.6c-0.5,12.2-8.3,24.5-20,27.8c-2.2,0.6-4.6,0.9-6.8,1.8
				c2.1,2.6,4.3,5.1,6.7,7.4C275.3,406.3,279.9,409.7,284.6,413.1z"/>
		</g>
		<g>
			<path class="st24" d="M88.7,113.6c-10.8,8.9-21.6,17.8-32.4,26.7c-0.4,0.3-0.7,0.6-1.1,0.9c-0.3,1.7-0.6,3.4-0.7,5.2
				c6.5-4.1,13.1-8.3,19.6-12.4c0.5-0.3,1-0.6,1.5-0.6c1.6-0.1,2.2,2,2.3,3.6c0.1,5.2-1.2,10.4-3.5,15c1.5-0.8,3-1.7,4.3-2.8
				C86.3,143,89.9,122.9,88.7,113.6z"/>
		</g>
		<path class="st23" d="M560,237.8c-3.9-4.9-8.4-9.6-13.9-12.6c-6.9-3.7-14.9-4.7-22.7-5c-5.8-0.3-11.6-0.3-17.2,1.1
			c-15.1,3.6-27,17.6-28.2,33.1c-0.1,1.1-0.1,2.3,0.3,3.4c1.3,3.1,5.4,3.3,8.6,4.3c6.3,1.9,10.5,8.3,11.3,14.9
			c0.9,6.5-0.9,13.1-3.3,19.3c3.9-0.4,7.9-0.9,11.2-3s5.8-5.9,5-9.7c3.8,2.6,5.6,7.3,6,11.8s-0.2,9.1-0.2,13.7
			c0,14.4,6.7,27.7,11.4,41.3c4.7,13.6,7.2,29.4-0.3,41.6c-2.7,4.4-6.7,8.8-5.6,13.8c11.7-1.5,20.7-11.4,26-21.9
			c8.1-16,10.2-35.1,5.7-52.5c4.3,6,6.8,13.2,7,20.6c4,0.9,7.2-3.2,9.1-6.8C587.8,311.4,583.7,267.5,560,237.8z"/>
		<g>
			<path class="st14" d="M20.4,123.4c-0.2,0.5-0.3,1.1-0.5,1.7c-0.8,3.1-1.3,6.4-0.9,9.5c1.4,2.6,3,5,4.7,7.4
				c0.4,0.6,0.9,1.2,1.3,1.8c-1.2-2.8-2.2-5.7-3-9C21.3,131.1,20.7,127.3,20.4,123.4z"/>
			<path class="st14" d="M79.3,74.9c-0.5-1.6-2.5-2.7-4-2c-1,0.4-1.8,1.3-2.5,2.2c2.3,0.4,4.6,0.8,6.7,1.4
				C79.5,76,79.5,75.5,79.3,74.9z"/>
			<path class="st14" d="M19.9,137.9c-0.4-1.1-0.7-2.2-0.9-3.3c-1.4-2.7-2.6-5.4-3.3-8.3c-0.3,2-0.4,3.9-0.3,5.8
				C16.5,134.3,17.9,136.3,19.9,137.9z"/>
			<path class="st12" d="M80,76.6c-0.2,0-0.3-0.1-0.5-0.1c0,0.2,0,0.3-0.1,0.5C79.7,76.7,79.9,76.6,80,76.6z"/>
			<path class="st12" d="M57.9,78.6c-8.8,3.1-17.8,7-23.5,14.3c-2.7,3.5-4.6,7.5-6.4,11.5c-2.8,6.2-5.7,12.4-7.5,19
				c0.3,3.9,0.9,7.7,1.7,11.4c0.7,3.2,1.8,6.2,3,9c2.3,2.9,4.8,5.6,8,7.3c3.9,2.1,8.9,2.4,12.5-0.1c3.5-2.5,4.7-7,5.8-11.1
				c4.1-15.6,8.6-31,13.4-46.3c1.9-6.2,3.9-12.5,7.6-17.9c0.1-0.2,0.2-0.3,0.3-0.5c-3.3-0.5-6.6-0.9-10-1
				C62.8,76.4,60.1,77.8,57.9,78.6z"/>
			<path class="st25" d="M72.7,75.1c-0.1,0.2-5.7,0.3-5.8,0.5c-3.7,5.4-5.7,11.7-7.6,17.9c-4.7,15.4-9.3,30.8-13.4,46.3
				c-1.1,4.1-2.4,8.6-5.8,11.1c-3.6,2.6-3.2,2.2-7.1,0.1c-3.2-1.7-5.8-4.4-8-7.3c9.6,22.1,31.4,30.2,31.6,28.7
				c0.3-2.7-0.9-4.8-1.5-7.3c-0.5-2.5-0.4-5.3-0.4-7.9c0.5-17.2,6.6-34.4,12.3-50.4c1-2.7,9.6-26.6,12.3-29.9c0-0.2,0-0.3,0.1-0.5
				C77.3,76,75,75.5,72.7,75.1z"/>
			<path class="st26" d="M32.2,84.9c-9.6,10.2-12.7,24.6-11.8,38.5c1.9-6.6,4.7-12.8,7.5-19c1.8-4,3.7-8.1,6.4-11.5
				c5.8-7.3,14.8-11.2,23.5-14.3c2.2-0.8,4.9-2.2,4.9-4.4C51.5,73.8,40.1,76.4,32.2,84.9z"/>
		</g>
		<g>
			<path class="st27" d="M536.4,394.7c7-7.8,9.6-18.8,8.9-29.3c-0.7-10.5-4.6-20.5-9.2-29.8c-2.8-5.6-5.9-11.2-7.4-17.2
				c-1.5-6.3-1.3-12.9-2.5-19.3c-2.8-14.5-14.1-27.1-28.3-31.4c2.8,5.6,5.1,11.8,4.5,18.1c-0.4,3.7-2,7.5-4.5,10.1
				c2.9-0.4,5.8-1.1,8.3-2.6c3.3-2,5.8-5.9,5-9.7c3.8,2.6,5.6,7.3,6,11.8s-0.2,9.1-0.2,13.7c0,14.4,6.7,27.7,11.4,41.3
				c4.7,13.6,7.2,29.4-0.3,41.6c-2.7,4.4-6.7,8.8-5.6,13.8c0.4,0,0.8-0.1,1.1-0.2c1.2-0.9,2.5-1.9,3.7-2.8
				C530.4,400.1,533.7,397.7,536.4,394.7z"/>
			<path class="st27" d="M563.5,302.4c-2.5-8.4-5.8-16.7-11.3-23.5c-4.3-5.1-9.8-9.2-15.5-12.7c-11.8-7.4-26.2-13.1-39.4-8.8
				c6.6-1.2,13.4,1.4,18.6,5.6c5.2,4.2,9.1,9.8,12.6,15.5c12.5,19.9,22.5,41.7,27.6,64.5c-0.4-4-1-8-2-11.9c4.3,6,6.8,13.2,7,20.6
				c4,0.9,7.2-3.2,9.1-6.8c0.6-1.1,1.1-2.2,1.6-3.3c-0.4-1.4-0.7-2.9-0.9-4.3C569.1,325.6,566.9,313.8,563.5,302.4z"/>
			<path class="st14" d="M495,295.9c-1.1,1.3-2.3,2.5-3.6,3.6c2.5-0.5,4.7-1.8,6.4-3.7c-1,0.1-1.9,0.2-2.9,0.3
				C495,296,495,296,495,295.9z"/>
		</g>
		<path class="st13" d="M138.6,135.1c11.3,2.8,23.6,1.2,33.8-4.3c3.8-2,7.3-4.5,10.6-7.3c6-5.1,11.4-11.1,14.8-18.3
			c4.3-9.1,5-19.9,2-29.5c-1-3.3-2.5-6.5-4-9.6c-5.1-10.3-11.6-20.8-22.2-25.2c8.3,3.4,16.8,7,22.9,13.6c5.5,5.9,8.5,13.6,10.5,21.4
			c3.9,15.5,3.8,33.2-5.7,46.1c-2.3,3.1-5,5.8-7.8,8.4c-2.9,2.7-5.9,5.3-9.2,7.5c-12.2,8-27.7,9-42.3,8.5c-2.7-0.1-5.5-0.3-7.6-1.9
			C135.7,141.3,137.1,138.2,138.6,135.1z"/>
		<path class="st28" d="M73.9,91.3c1.4-1.9,3.6-11,5-13c1-1.4,2.7-2,4.3-2.6c7.1-2.7,13.7-6.4,19.7-11c1.9-1.4,3.7-2.9,5.5-4.4
			c7.2-6,14.5-11.8,22.8-16.3c-0.9,2.5-8.7,12.6-34.2,32.4C87,84.2,75.8,88.7,73.9,91.3z"/>
		<g>
			<path class="st13" d="M255,471.7c-16.4-5.9-32.7-11.9-49.1-17.8c-17.6-6.4-35.2-12.8-51.6-21.8c-18.6-10.2-35.2-23.6-51.6-36.9
				c-13.6-11-27.5-22.3-36.1-37.5c-4.6-8.1-7.5-17-9.8-26.1c-6.2-24.5-7.8-50.2-4.9-75.3c-10.8,58.5,9.3,123.6,50.7,162.5
				c34.5,32.4,98,45.4,142.9,55.9c17.9,4.2,41.1,9,57.8,20.2c0.5,0.1,1.1,0.3,1.6,0.4C290,484.5,272.4,478,255,471.7z"/>
		</g>
		<g>
			<path class="st29" d="M63.3,247.4c-3.9,21.7-4.7,44.2-0.6,65.8c4.2,21.7,13.5,42.6,28.3,59c5.3,5.9,11.2,11.1,17.1,16.3
				c18.3,16.1,38.6,33,63,34c11.2,0.5,24.1-3.9,28.1-14.4c4.4-11.4-3.3-23.6-10.7-33.4c-4.2-5.5-8.3-11.1-12.5-16.6
				c-14.2-18.9-28.5-38-38.4-59.5c-13.3-28.9-18.1-62.7-8.3-93.1c3-9.4,7.4-18.5,9-28.3s-0.2-20.9-7.6-27.4c-0.4-0.3-0.8-0.7-1.2-1
				c-3.9,3.4-8.5,6.2-12.9,9c-13.9,8.9-25.4,19.5-34.8,31.4c-0.9,1.8-1.7,3.7-2.5,5.5C71.9,211.7,66.5,229.3,63.3,247.4z"/>
		</g>
		<path class="st30" d="M311,285.8c5.7-9.9,10.5-21.9,6.1-32.5c-0.9-2.2-2.3-4.5-2-6.9c3-1.8,7-1.6,9.9,0.4c2,1.4,3.3,3.5,4.3,5.6
			c5.8,12.5,1.7,27.8-6.7,38.7c-8.4,10.9-20.5,18.4-32.2,25.5c-4.9,3-9.9,6-14.8,9.1c4.9,3.7,7.4,9.7,9.2,15.6
			c4.1,14.3,4.6,30.4-2.8,43.2c-1.7,3-3.9,5.8-6.8,7.6c-2.9,1.8-6.7,2.5-9.9,1.3c-2.8-1.1-4.8-3.4-6.6-5.8
			c-4-5.2-7.5-10.9-10.3-16.9c-1.5-3.2-2.9-6.5-4.8-9.5c-1.8-2.9-4.1-5.4-5.9-8.3c-2.6-4.1-4.1-8.7-5.4-13.4
			c-5.1-18.1-7.5-37.3-4.5-55.9c-0.1,6.9-0.1,13.9,0,20.8c0.1,4.5,0.3,9,1.4,13.4c1,4,2.8,7.8,4.6,11.5c7.3,15,15.6,30.5,29.6,39.6
			c2.7,1.8,6.6,3.2,9,1c1.1-1,1.5-2.4,1.8-3.8c3.7-15,0.5-31.5-8.5-44.1c8.7,2.2,17.6-3,24.2-9.1C298.4,305.2,305.2,295.8,311,285.8
			z"/>
		<g>
			<g>
				<path class="st31" d="M346.7,358.3c-0.4-0.2-0.8-0.4-1.2-0.5c1.3,1.5,2.6,3,3.9,4.5C349.2,360.8,348.2,359.1,346.7,358.3z"/>
				<path class="st31" d="M371.6,396.5c0.5,1.1,1.1,2.2,1.6,3.3C373,398.6,372.4,397.4,371.6,396.5z"/>
				<g>
					<path class="st31" d="M323.6,246.5c3.5,4.9,6.4,10.2,7.9,15.8c-0.3-5.2-1.4-10.4-3.2-15.2C326.7,246.8,325.2,246.6,323.6,246.5
						z"/>
				</g>
				<g>
					<path class="st31" d="M332.3,274c0.5-4,0.1-7.9-0.9-11.7c0.2,4.3-0.1,8.6-1,12.8c-2.7,12.3-12.2,21.9-21.9,29.9
						c0.3-0.1,0.6-0.3,0.9-0.4C320.5,296.8,330.7,287.1,332.3,274z"/>
				</g>
				<g>
					<path class="st31" d="M345.9,267.6c-1.4,4.5-2.8,9-4.3,13.6c-0.8,2.7-1.7,5.3-2.9,7.8c-4.5,9.2-13.6,15.1-22.3,20.5
						c-3.7,2.3-7.3,4.6-11,6.9c13.2-1.8,26.5-7.2,34.9-17.6c2.1-2.6,3.8-5.4,5.4-8.3c3.3-6.1,5.7-12.5,7.3-19.2
						c0.5-2.2,1.4-4.8,3.5-5.4c-2.7-4.2-6-8-9.9-11.1C348.5,258.7,347.2,263.4,345.9,267.6z"/>
				</g>
				<g>
					<path class="st31" d="M340.8,257.9c0-1.2,0-2.4,0.5-3.6c0.4-0.9,1.1-1.6,2-1.8c-0.9-0.6-1.9-1.1-2.9-1.6
						c-3.9-1.9-8-3.1-12.2-3.8c1.8,4.8,2.9,10,3.2,15.2c1,3.8,1.4,7.7,0.9,11.7c-1.6,13.1-11.8,22.7-22.9,30.6
						C327.6,296.7,340.4,277.7,340.8,257.9z"/>
				</g>
				<g>
					<path class="st31" d="M371.8,446.4c1.3-0.1,2.5-0.2,3.7-0.7c3.6-1.5,5.1-5.6,5.7-9.5c-3.3,2.4-8,1.6-12,0.4
						c-23.2-6.7-44.5-19-63.6-33.7c-3.5-2.6-6.9-5.5-9.2-9.1c7.8,13.5,21,22.9,34,31.6c6.3,4.3,12.7,8.5,19.2,12.6
						c1.9,1.2,3.9,2.6,4.7,4.7c0.3,0.9,0.2,2-0.2,3C359.8,446.7,365.8,446.9,371.8,446.4z"/>
				</g>
				<g>
					<path class="st31" d="M371.7,403.8c-1.1,0.8-2.6,0.9-4,0.9c-13.3-0.1-26.3-4.4-38.1-10.5c-11.8-6.1-22.6-14-33.3-21.9
						c6.1,8.5,15.3,14.3,24.3,19.6c13.7,8.1,28.3,16,44.2,17c3.6,0.2,7.3,0.1,10.5,1.8c3.1,1.7,5.2,6.1,3.1,8.9
						c-2.3,3.1-7,2.2-10.6,1.1c-12.4-4-24.9-8-36.4-14.1c-11.2-5.9-21.3-13.6-31.4-21.3c4.4,4.4,8.9,8.7,13.3,13.1
						c3.3,3.2,6.6,6.4,10.4,8.9c3.1,2,6.4,3.5,9.8,4.9c12.5,5.5,25.2,11,38.7,12.7c2.7,0.3,5.6,0.5,8.2-0.5c0.4,0.2,0.7,0.4,1,0.7
						c-1-8.4-4-16.6-7.6-24.3c-0.2-0.3-0.3-0.7-0.5-1C373.4,401.3,373,402.9,371.7,403.8z"/>
				</g>
				<g>
					<path class="st31" d="M342.1,304c-11,8.6-22.8,15.2-36.3,18.7c0.5,0.7,1.4,0.7,2.3,0.7c21.1-0.4,39.7-12.9,56.8-25.2
						c0.1-0.1,0.3-0.2,0.4-0.3c0.1-7.2-1.1-14.5-3.5-21.3c-0.1-0.4-0.3-0.8-0.5-1.2C359.8,286.9,351.4,296.7,342.1,304z"/>
				</g>
				<g>
					<path class="st31" d="M348.1,365.6c-0.8,0.6-1.9,0.7-2.9,0.8c-12,0.7-23.3-5.3-33.8-11.2c-6.9-3.8-13.7-7.7-20.6-11.5
						c1.9,4.9,6.7,8.1,11.2,10.9c4.8,3,9.6,6,14.3,9c3.8,2.4,7.7,4.8,11.9,6.4c8.7,3.3,18.4,3.1,27.6,4.6c1.1,0.2,2.3,0.5,3.4,1
						c-3.1-4.5-6.3-8.8-9.8-13C349.5,363.6,349.2,364.8,348.1,365.6z"/>
				</g>
				<g>
					<path class="st31" d="M301.5,330.7c12.4,6.6,27.4,5.7,41.3,3.5c4-0.6,8.1-1.3,12.1-1c2.2-3.5,4.1-7.2,5.7-11.1
						c-1.6,1.2-3.5,2.1-5.3,2.9C338.3,331.9,319.5,333.9,301.5,330.7z"/>
				</g>
				<g>
					<path class="st31" d="M359,384.6c-2.2,0.6-4.5,0.2-6.8-0.3c-20.5-4.6-38.9-15.5-56.9-26.2c4.3,3.5,8.6,7.1,12.9,10.6
						c5,4.1,10.1,8.3,15.8,11.4c5.1,2.8,10.7,4.6,16.2,6.4c7.6,2.5,15.3,5.1,23.2,6.7c2.8,0.6,5.8,1.1,8,3.1
						c0.1,0.1,0.1,0.1,0.2,0.2c-2.6-5.3-5.5-10.5-8.7-15.5C362.4,382.7,360.8,384.1,359,384.6z"/>
				</g>
				<g>
					<path class="st31" d="M332.5,351.2c-12.7-0.3-25.2-5.2-34.9-13.5c8.7,13.1,24.7,21,40.4,19.9c2.5-0.2,5.1-0.5,7.5,0.2
						c-2.2-2.4-4.4-4.8-6.7-7.1C336.7,351.2,334.5,351.3,332.5,351.2z"/>
				</g>
				<g>
					<path class="st31" d="M296.3,393.9c-0.4-0.6-0.7-1.2-1.1-1.9C295.6,392.6,295.9,393.3,296.3,393.9z"/>
				</g>
				<g>
					<path class="st31" d="M300.5,333.6c6.2,6.2,14.5,10.4,23.2,11.6c6.5,0.9,13.2,0.2,19.5,1.6c2.7-2.4,5.2-5,7.5-7.8
						c-0.8,0.1-1.6,0.2-2.3,0.3C332.1,340.7,315.1,340.7,300.5,333.6z"/>
				</g>
				<g>
					<path class="st31" d="M356.8,312.6c-16,10.3-35.3,15.3-54.2,14.1c10.3,3.1,21.5,2.3,32-0.3c9.6-2.4,18.8-6.3,28-10
						c1.1-3.6,1.9-7.3,2.3-11C362.8,308.3,359.8,310.7,356.8,312.6z"/>
				</g>
			</g>
		</g>
		<g>
			<path class="st32" d="M163.1,62.1c-3.4-1.6-6.7-3.3-10-5c-0.1,0-0.2,0-0.2,0c-2.4-1.3-5.2-1.7-7.8-0.7c-0.1-0.1-0.2-0.2-0.4-0.1
				c-3.1,1-5.7,4-6.7,7.2c-0.1,0.2-0.2,0.5-0.4,0.7c-1.5,2.8-3.2,5.4-5.1,8c-0.3,0.4,0.3,0.9,0.7,0.7c2.1-1.2,4.9,0.5,6.9,1.4
				c1,1.1,2.3,2,3.9,2.6c5.5,2.4,12.6-1.9,14.4-7.3c0,0,0.1,0,0.1-0.1c1.6-2.2,3.2-4.4,4.7-6.7C163.5,62.6,163.4,62.2,163.1,62.1z
				 M156,71.5c-2.1,4.1-7.2,5.4-11.3,4.2c-4.7-1.4-6.5-6.3-5.7-10.7c0.7-3.6,3.5-5.8,6.1-8.1c0,0,0-0.1,0.1-0.1
				c2.7-0.2,5.1-0.1,7.6,1.3c2.3,1.3,3.7,3.7,4.5,6.1C157.3,66.8,157.3,69,156,71.5z"/>
			<path class="st32" d="M579.6,277.5c-1.3-5.9-3.7-11.8-5.8-17.4c-3.6-9.5-8.9-18.1-15.9-25.5c-13.4-14.1-32.2-22.1-51.4-16.6
				c-16.9,4.8-31,22.5-29.9,40.4c-1.4-0.8-2.8-1.6-4.1-2.4c-12.6-7.4-25.3-14.4-38.2-21.3c-12.4-6.7-24.7-13.7-37.6-19.4
				c-12-5.3-24.4-7.1-37.4-8c-14.5-0.9-29.1-2.1-43.6-2.7c-29.4-1.3-58.2,9.1-87.2,12.2c-10.7,1.1-23.8-1.6-27.3-13.3c0,0,0,0,0-0.1
				c0.1-1.3,0.3-2.5,0.5-3.8c1.4-7.2,5.4-12.8,10.3-18.1c3.6-3.9,7.6-7.5,10.8-11.8c4.1-5.5,7.3-11.4,10.2-17.5
				c10.6-22.5,18.6-48.3,15.1-73.4c-1.8-13-6.2-24.3-15.1-34c-8-8.7-17.7-16.1-28.3-21.4c-10.9-5.5-22.7-7.7-34.9-7.9
				c-12.2-0.2-24.9,0.9-35.8,7c-9.4,5.2-16,15.7-14.5,26.6c-6.7,5.1-12.9,10.8-19.7,15.8c-6.6,4.9-13.8,8.5-21.7,10.7
				c-6.9-1.7-13.9-1.9-21-1.5s-14.3,1.2-20.4,5.1c-10.6,7-16.6,20.8-18.4,32.9c-1.9,12.8,1.3,25.8,7.8,36.9
				c6.9,11.8,17.7,19.7,29.3,26.4c0.2,0.2,0.4,0.5,0.6,0.7c0.2,0.2,0.5,0.2,0.6,0.1c0,0,0,0,0.1,0c0.1,0.1,0.2,0.1,0.3,0.1
				c0.1,0.1,0.1,0.3,0.2,0.4c0.3,0.5,1.1,0.2,0.9-0.4c-2.3-7.2-3.5-13.9-3.2-21.2c9.3,3.2,19.5,0.1,26-7.3c2.6-3,4.2-6.5,5.3-10.3
				c0.2,0,0.5,0,0.8-0.2c6.1-3.8,12.3-7.5,18.4-11.3c3.9-2.4,7.3-4.4,12.1-3.4c4.3,0.9,7.9,4.1,11.2,6.8c2.7,2.2,5.4,4,8.2,5.3
				c-3.5,10.3-12.4,16.7-21.4,22.3c-9.1,5.7-18.2,10.8-26,18.3c-16.5,15.9-25.9,37.9-31.9,59.6c-12.3,43.8-12.2,93.2,7.2,135
				c20.5,44.2,63.1,69.7,107.4,85.4c21.4,7.6,43.5,13.1,65.4,19c7.1,12.6,9.4,27.1,12.7,41c1.7,7.4,3.5,14.8,5.3,22.1
				c0.9,3.8,2.3,7,4.8,9.7c-4.1,10.4-6,21.3-12.1,30.9c-1.1,1.7-2.3,3.4-3.6,4.9c-3.8,2.3-7.6,4.4-11.6,6.2c-0.1,0-0.3,0-0.3,0.1
				c-1.1,0.5-2.3,0.9-3.4,1.4c-2,0.7-4.1,1.2-6.2,1.6c-0.2-0.2-0.5-0.1-0.6,0.1c-4.4,0.8-9,1-13.5,1c-10.5,0.1-21.9-1.2-32,2.5
				c-0.5-0.2-0.9-0.3-1.4-0.4c-0.8-0.1-1.1,0.8-0.8,1.4c-3.4-0.2-7.4,1.2-9.9,2.3c-5.1,2.2-9.4,6.4-8.6,12.3
				c0.1,0.5,0.4,1.1,1.1,1.1c1.3-0.1,1.8-0.1,2.8-1c3-2.4,5.9-3,9.7-3.1c2,0,3.8,0.1,5.6-0.1c3,4.5,10.7,2.6,15.1,2
				c8.2-1.2,16.2-3.3,24.2-5.4c-7,3.2-14.4,5.8-21.8,8.1c-4.3,1.4-8.7,2.7-13.1,3.9c-0.1,0-0.2-0.1-0.3,0l-0.1,0.1l0,0
				c-0.7,0.2-1.5,0.4-2.2,0.7c-3.5,1-7.3,1.8-9.7,4.7c-3.3,1.8-6.1,4.5-8,7.2c-3.4,4.9-7.2,13.6-1.9,18.5c0.6,0.6,1.6,0.3,1.9-0.5
				c2.7-7.7,11-7.9,15.8-12.8c5.6,1.5,12.4-1.6,17.6-3.4c6.7-2.2,13.2-5,19.5-8.2c6.7-3.3,13.1-7.4,19.1-11.7
				c3.2-2.3,6.7-4.8,9.8-7.6c-1.6,2.8-3.1,5.7-5,8.3c-1.3,1.7-2.7,3.4-4.2,4.9l0,0c-3,3.1-6.4,5.8-10,8.2c-4.6,3-9.7,4.3-14.5,6.7
				c-3.8,1.8-6.6,4.4-6.8,8.8l0,0c-3.7,1.9-5.5,7.9-6,11.4c-0.8,4.7,0.9,10.1,6.3,10.5c0.4,0,0.8-0.3,0.9-0.7
				c0.9-5.2,1.8-10.3,5.2-14.5c0,0,0-0.1,0.1-0.1c2.9,2.9,7.1-0.2,9.8-2c5.6-3.7,10.9-7.7,16.1-12c10.9-9.1,21.1-19.7,29.4-31.3
				c0,0,0-0.1,0.1-0.1c5.2-0.6,10.4,0.3,15.4,1.9c5,1.7,9.4,5.4,14.4,6.7c2.3,0.6,4-0.3,5.1-1.9c1.6,0.4,2.8,1.1,3.7,2.5
				c0.3,0.4,0.7,0.9,1.3,0.9c1.5,0,2.3-2.5,2.6-3.7c1-4.5-3.1-6.8-6.7-8.1c-0.1,0-0.3,0-0.4,0c-0.2-0.4-0.4-0.8-0.7-1.1
				c-2.5-3.1-5.8-4.5-9.5-5.6c-4.5-1.4-9.2-2.6-13.7-3.9c-0.1-0.1-0.3-0.2-0.5-0.1c-1-0.3-2-0.6-3-0.9c-5.9-1.9-2.7-6.8-1-10.5
				c1.5-3.3,3-6.5,4.6-9.8c2.8-6,5.6-12,8.4-18c0-0.1,0-0.1,0.1-0.2c3-1.3,5.9-3,8.3-5c5-4,8.8-9.2,12.7-14.2
				c4.8-6.1,9.6-12.2,14.4-18.2c0.6,1,1.2,2,1.7,3.1c4.2,8.5,4.6,17.6,4,26.9c-0.7,10.1,0.7,21.8,8.7,26.8c0,0.1-0.1,0.2-0.1,0.3
				c-2.3,13.8-5.9,27.4-11.1,40.4c-2.1,5.3-4.8,10.1-8,14.4c-12.9,8.1-26,12.9-41.1,15.2c-8.5,1.3-17.1,1.9-25.6,2.6
				c-4,0.3-8.7,0.6-11.4,3.8c-4.5-0.3-9.1,1.5-12.7,4.1c-3.8,2.7-9.5,9.2-6.7,14.1c0.3,0.5,0.9,0.7,1.4,0.4c0.8-0.5,1-0.7,1.7-1.3
				c2.3-2.3,5.5-2.3,8.6-2.6c2.6-0.2,5.4-0.4,7.8-1.5c0.1-0.1,0.3-0.1,0.4-0.2c0.5,1.5,1.7,2.7,3.4,2.8c4.8,0.2,9.9-1.9,14.5-3
				c9.6-2.4,19.3-4.7,28.9-7.2c-1.5,0.9-3,1.8-4.5,2.6c-6.6,3.5-14.2,4.8-21.1,7.6c-6.1,2.5-12.1,5.3-18.1,8c-3.1,1.4-8,2.7-9.8,5.9
				c-4,2.2-7.4,5.8-9.8,9.4c-3.9,6-5.9,15.8,0.1,21c0.6,0.5,1.5,0.3,1.8-0.5c2.4-7.4,9.8-9.9,15.5-14.2c0,0,0,0,0.1,0
				c5.3,2.6,12.4-2,16.9-4.6c7.2-4.1,13.9-8.8,21.4-12.4c14.1-6.7,26-15.7,37.3-26.1c-2.1,3.5-4,7.3-6.1,10.7
				c-2.4,4.1-5.1,7.7-8.3,10.8c-0.3,0-0.4,0.2-0.4,0.4c-2.1,2.1-4.5,4-7.1,5.8c-5.1,3.5-10.9,6-16.5,8.6c-3.4,1.6-7.9,3.8-6.2,8.3
				c0.1,0.2,0.3,0.3,0.4,0.3c-0.1,0-0.1,0-0.2,0.1c-0.3,0.2-0.3,0.5-0.1,0.8c-3.7,3.2-4.7,8.1-4.8,13.1c-0.2,5.3,0.7,11.6,6.7,12.8
				c0.6,0.1,1.3-0.3,1.2-0.9c-0.6-5,0.8-9.4,4-13.2c0.3-0.4,0.6-0.7,0.9-1c1.5,2.6,2.5,2.5,5.9,1.9c4-0.7,7.5-3.9,10.3-6.7
				c8.5-8.4,16-18.1,23.8-27.1c6.8-7.9,12.7-16,17-25.6c3.3-7.3,12.5-4.6,18.7-3.8s12.3,2.2,18,5c2.8,1.3,4,2.2,6.5,0
				c0.3-0.2,0.5-0.5,0.7-0.7c1.6,0,3.2,0.4,4.7,1.2c0.8,0.4,1.6,1.1,2.2,1.7c0.5,0.5,0.9,1.6,1.5,1.9c2.1,1.2,2.6-2.8,2.8-3.9
				c1.2-5.8-6.5-11-11.7-10.9c-0.1,0-0.2,0-0.3,0.1c-4.2-6-15-6-21.2-7.2c-2.5-0.5-17.3-2.4-16.5-6.3c1.3-6.3,3.5-12.5,5.3-18.7
				c3.7-12.4,8-24.6,11.6-37.1v-0.1c8.8-4.3,15.6-12.5,19.8-21.3c7.6-15.7,10.6-33.9,10.9-51.2c10.8-12.3,26.4-15.1,42.8-16.3
				c16.9-1.2,34.4-2,50.3-8.7c30.4-13,48.4-42.1,59-72.1c0.1-0.3,0.1-0.6-0.1-0.9c6.3-5.1,11.7-11.3,15.1-18
				c3.5-6.8,4.2-15.4,5-22.9c0.5-4.6,0.6-9.7-0.1-14.6c0.7,4.3,0.5,8.8,1.7,12.9c-0.3,1.4-0.4,2.8-0.4,4.3c0,0.9,1.3,0.9,1.4,0
				c0.7-5.9,3.4-10.9,6.1-16.1c2.6-4.9,4.8-9.9,6.7-15.1c4-10.8,6.3-22.3,7.1-33.8C580.9,289.1,580.8,283.3,579.6,277.5z M298.7,602
				c3.3,1.2,6.5,3.5,4.7,7.5c-0.3,0.7-0.6,1.4-1.2,0.5c-0.3-0.4-0.7-0.8-1.1-1.1c-0.9-0.7-1.8-1.1-2.9-1.3
				C299,605.9,299.1,603.8,298.7,602z M383.3,642.8c1.4,0.8,2.4,2,3,3.5c0.3,0.9-0.6,5-0.8,4.8c-2.1-2.6-5-4.2-8.2-4.3
				c0.7-1.9,0.3-4.2-0.2-6c-0.1-0.2-0.1-0.4-0.2-0.6C379.2,640.3,381.4,641.6,383.3,642.8z M56.2,174c-0.1,0-0.1-0.1-0.2-0.1
				c-0.9-1.7-2-3.3-2.9-5c-1-1.9-1.8-3.9-2.8-5.8c-0.2-0.3-0.6-0.1-0.5,0.2c0.6,2.6,2,5.6,3.6,8.1c-7.7-7.9-16.4-15.9-15-27.9
				c0-0.4-0.6-0.4-0.6-0.1c-1.9,11.2,6.2,20,13.7,27.7c-8.7-5.5-16.4-12-22.2-20.8c-6.6-10-9.9-21.9-9.3-33.9
				c0.6-12.4,6-24.2,14.8-32.9c5.7-5.7,13.1-6.7,20.8-7.4c7.5-0.6,15-0.4,22.4,1.1c-3.7,7.8-6.3,16.3-9.2,24.4
				c-3.4,9.2-6.9,18.5-10,27.8C54.1,143,50.4,160.1,56.2,174z M82.3,142c-4.8,9.9-16.9,14-27.1,11.1c0-0.4,0-0.8,0.1-1.3
				c0.4-4.2,1.2-8.3,2.3-12.3c7.7-5.7,15.4-11.5,23-17.4c3.7-2.8,6.8-6.2,10-9.4C86.2,122,86.8,132.7,82.3,142z M133.9,130.3
				c-4.7-3.2-8.4-7.2-13.7-9.4c0.2,0,0.4,0,0.5,0c4.1-0.1,6.9,1.2,10.5,2.8c0.3,0.1,0.6-0.2,0.4-0.5c-4.1-4.6-12.3-4.9-18.1-3.3
				c-2.7,0.4-5.2,1.5-7.7,3c-6.3,3.8-12.5,7.6-18.7,11.4c1.6-7.2,2-15,4.4-21.6c0.1-0.3-0.1-0.5-0.4-0.6c2.7-2.6,5.4-5.1,8.7-7.1
				c16.9-10.2,40.7-15.1,56.5-0.4c0.2,0.2,0.5-0.1,0.4-0.3c-9.5-15.4-35.9-11.4-49.4-5c-4.6,2.2-9.2,4.6-13.2,7.7
				c-3.7,2.9-6.5,6.8-9.9,10c-7.9,7.5-17.4,13.7-26,20.4c1-3.6,2.2-7.1,3.4-10.6c2.9-8.3,6-16.4,9.1-24.6c3-8.1,6.5-16.3,8.7-24.7
				c0.4-0.1,0.7-0.4,0.8-0.8c3.9-0.8,7.6-2.1,11.1-3.8c-1.9,2-3.9,4.1-5.5,6.4c-0.1,0.2,0.1,0.4,0.3,0.2c2.1-1.9,4-4.1,6-6.2
				c0.6-0.6,1.2-1.2,1.8-1.7c4-2.2,7.7-4.8,11.4-7.7c-1.3,1.8-2.6,3.9-2.9,6c0,0.3,0.4,0.4,0.5,0.1c0.6-2.8,3.2-5.8,5-7.9
				c0.2-0.2,0.4-0.4,0.6-0.6c9.5-7.7,18.7-16.1,29.8-20.5c12.7-5,27.3-3.2,38.9,3.7c11.8,7,18.3,19,21.9,31.9
				c3.7,13.6,2,29-8.2,39.4c-4.6,4.8-10.9,8.3-16.5,11.7c-6.5,3.9-13.6,6.8-21.1,7.6C146.2,135.9,139.6,134.2,133.9,130.3z
				 M174.5,606.4c-2.4,0.3-4.9-0.1-7.3,0.1c-1.5,0.1-3,0.5-4.4,1.1c-1.3,0.4-2.7,1.9-4.2,2.5c0.5-8.3,12.4-11.9,19.5-11.3
				C180.9,601.3,180,605.8,174.5,606.4z M198.7,607c-6,1.3-16,4.5-21.7,1c1.1-0.3,2.2-0.8,3.3-1.8c3.3-2.9,1.9-7.2-1-9.5
				c1.7-0.3,3.5-0.5,5.2-0.7c0.3,0.7,0.7,1.4,1,2.1c0.7,1.5,1,2.8,1.3,4.4c0.1,0.3,0.4,0.2,0.5,0c0.6-2.1-0.7-4.6-1.9-6.6
				c1.8-0.2,3.6-0.3,5.4-0.4c1,0.9,1.7,1.8,2.1,3.1c0.5,1.4,0.2,2.6,0.3,4c0,0.2,0.3,0.3,0.5,0.1c1.4-2.3,0.1-5.5-1.8-7.3
				c1.9-0.1,3.8-0.1,5.7-0.2c0.2,0.7,0.7,1.4,1,2.1c0.6,1.5,0.3,2.9,0.3,4.4c0,0.2,0.3,0.3,0.4,0.1c0.7-1,0.7-2.3,0.5-3.4
				c-0.1-0.6-0.3-1.3-0.6-1.9c-0.2-0.5-0.5-0.9-0.8-1.4c1.5,0,3,0,4.5-0.1c0.2,0.7,0.5,1.4,0.6,2.2c0.2,1.2,0,2.4,0.3,3.5
				c0.1,0.3,0.5,0.3,0.6,0c0.7-1.6,0.1-4-0.6-5.7c1.1,0,2.2,0,3.4,0c0.4,0.8,0.8,1.6,1.1,2.5c0.3,1.1,0,2.3,0.4,3.3
				c0.1,0.2,0.4,0.3,0.5,0.1c0.9-1.5,0.2-4.2-0.9-5.9c1.8,0,3.6-0.1,5.4-0.1c0.5,0.7,0.8,1.4,1.1,2.2c0.3,1,0,2,0.1,3
				c0,0.2,0.3,0.2,0.4,0.1c1.2-1.4,0.5-3.8-0.6-5.4c1.5-0.1,2.9-0.2,4.3-0.4c0.2,0.4,0.4,0.8,0.6,1.2c0.3,0.7,0.3,1.5,0.6,2.2
				c0.1,0.2,0.4,0.1,0.4-0.1c0.3-1.1-0.2-2.4-0.9-3.5c1.3-0.2,2.5-0.4,3.7-0.7c0.1,0.3,0.3,0.6,0.3,0.9c0.2,0.7,0.1,1.4,0.2,2.1
				c0.1,0.2,0.4,0.3,0.5,0.1c0.5-0.9,0.3-2.2-0.2-3.3c1.4-0.3,2.8-0.7,4.2-1.2c0.3,0.2,0.6,0.5,0.7,1c0.3,0.9-0.2,1.5-0.6,2.2
				c-0.1,0.2,0.1,0.4,0.3,0.4c1-0.4,1.3-1.6,1.2-2.6c-0.1-0.5-0.3-0.9-0.7-1.2c1.4-0.5,2.8-1,4.2-1.6c0,0.1,0.1,0.2,0.1,0.4
				c0.1,0.5,0.1,0.9,0.2,1.4c0,0.2,0.4,0.2,0.5,0.1c0.4-0.6,0.3-1.4,0-2.1c2.3-1,4.5-2,6.8-3.2c-4.7,4.8-10.2,8.8-15.8,12.3
				c-1.8,1.1-3.7,2.2-5.7,3.2c-0.1-0.4-0.5-0.7-1-0.6C211.9,603.8,205.3,605.6,198.7,607z M167.3,636.9c-4,2.1-7.1,4.3-9,8.1
				c-2.7-4.5,1.2-11.7,4-15.2c3.3-4.2,7.8-6.5,12.8-7.9c1.8,2.8,2.2,5.7,0.7,8.8C174.4,633.8,170.1,635.5,167.3,636.9z M200.8,658.8
				c-0.1,0.4-0.2,0.9-0.2,1.3c-2.7-0.6-4-2.3-3.8-5c-0.2-1.7,0.2-3.5,0.6-5.2c0.7-3.1,2.5-6.3,5.1-8.2c1.5,1.3,2.7,2.8,3.5,4.6
				C203,650.1,201.7,654.2,200.8,658.8z M266.6,580.5c-1,2.1-2.7,5.1-0.7,7.3c0.8,0.8,1.7,1.5,2.6,2c0.1,0.5,0.1,1,0.1,1.5
				c0,0.7-0.3,1.4-0.3,2.1c0,0.2,0.3,0.4,0.5,0.2c0.8-0.8,0.9-2.1,0.7-3.3c1.3,0.6,2.7,1,4,1.3c0,0.4,0,0.7-0.1,1.1
				c-0.2,0.9-0.7,1.8-0.8,2.7c0,0.3,0.3,0.5,0.5,0.3c1-0.8,1.4-2.3,1.4-3.8c0.6,0.2,1.2,0.3,1.8,0.5c0.5,0.1,1,0.3,1.5,0.4
				c-0.1,0.9-0.3,1.7-0.7,2.6c-0.4,1-1.2,1.7-1.6,2.7c-0.1,0.3,0.1,0.5,0.4,0.4c1.7-0.9,2.7-3.3,2.8-5.4c1.1,0.3,2.2,0.6,3.4,0.9
				c0,0.8-0.1,1.6-0.3,2.4c-0.3,1-1,1.9-1.3,2.9c-0.1,0.2,0.2,0.4,0.4,0.3c1.6-1,2.2-3.4,2.1-5.3c1.7,0.5,3.4,1,5.1,1.5
				c-0.1,0.6-0.3,1.2-0.5,1.8c-0.3,0.9-0.7,1.8-0.8,2.7c0,0.2,0.3,0.4,0.5,0.2c0.9-1.1,1.4-2.9,1.6-4.4c0.4,0.1,0.8,0.2,1.2,0.4
				c2.2,0.7,4.4,2.1,5.7,3.9c-0.2,0.7-0.4,1.4-0.6,2.1c-0.3,0.9-0.9,1.7-1.2,2.6c-0.1,0.3,0.3,0.4,0.4,0.3c1-0.9,1.8-2.4,2.1-3.8
				c0.5,1.2,0.8,2.5,0.6,3.9c-1.1,6.8-9.1,0.9-11.2-0.2c-7.4-4-15.5-6.2-23.8-4.3c-0.3-0.2-0.7-0.1-1,0.2c0,0,0,0.1-0.1,0.1
				c-0.2,0-0.3,0.1-0.5,0.1c-0.4,0.1-0.5,0.6-0.2,0.8c-6.7,8.5-13.7,16.5-21.6,23.9c-4.4,4.1-9,8-13.8,11.7
				c-2.9,2.2-13.1,11.9-16.9,8.7c-0.2-0.1-0.3-0.2-0.5-0.2c-0.9-2.2-2.3-4.2-4.3-5.5c0-0.2-0.1-0.4-0.3-0.4c0.2-2,1.2-3.5,2.5-4.7
				c1.1,0.5,2.1,1,3.1,1.8c1,0.9,1.5,2.3,2.6,3c0.1,0.1,0.3,0,0.3-0.2c0-1.3-1.4-2.7-2.3-3.5c-0.8-0.7-1.8-1.4-2.9-1.8
				c1.7-1.2,3.8-2.1,5.8-2.8c0,0.1,0.1,0.3,0.3,0.3c1.2,0.4,2.2,1,3.1,1.9c0.5,0.5,0.8,1.1,1.1,1.7c0.3,0.5,0.4,1.1,0.7,1.6
				c0.1,0.2,0.4,0.2,0.5-0.1c0.3-1.3-0.7-2.7-1.5-3.6c-0.9-1-2.1-1.8-3.4-2.2c1.4-0.5,2.8-1,4-1.6c0.3-0.1,0.6-0.3,0.9-0.4
				c0,0.1,0.1,0.1,0.1,0.2c0.8,0.5,1.5,1,2.2,1.7c0.4,0.4,0.7,0.8,0.9,1.3c0.2,0.4,0.4,0.8,0.7,1.1c0.1,0.1,0.4,0.1,0.5-0.1
				c0.1-1-0.7-2-1.3-2.7c-0.6-0.7-1.5-1.4-2.5-1.7c1.4-0.7,2.7-1.5,3.9-2.3l0.1,0.1c0.9,0.2,1.7,0.5,2.5,1.1s1.3,1.5,1.9,2.2
				c0.2,0.2,0.5,0,0.5-0.2c-0.2-2-2.3-3.3-4.2-3.7c2-1.3,3.9-2.7,5.7-4.2c0.2-0.2,0.4-0.3,0.6-0.5c0,0.1,0.1,0.3,0.2,0.3
				c1,0.2,1.9,0.6,2.8,1.2c0.9,0.6,1.5,1.3,2.4,1.9c0.2,0.1,0.4-0.1,0.3-0.3c-0.7-2.1-3.3-3.2-5.3-3.5c1.2-1,2.4-2.2,3.6-3.4
				c0.3,0.2,0.7,0.3,1,0.5c0.7,0.4,1.3,1.1,2,1.3c0.3,0.1,0.5-0.2,0.3-0.5c-0.3-0.7-1.3-1.2-1.9-1.6c-0.3-0.1-0.5-0.3-0.8-0.4
				c0.9-0.9,1.7-1.9,2.5-2.9c0,0.1,0,0.1,0.1,0.1c1.1,0.7,2.4,0.8,3.5,1.5c1.2,0.8,1.9,2,2.9,2.9c0.2,0.2,0.5,0,0.5-0.3
				c-0.3-2.3-4.4-5.2-6.8-4.6c0.9-1.1,1.7-2.2,2.5-3.3c2.1,0.1,3.4,1.2,4.6,2.9c0.1,0.2,0.4,0.1,0.4-0.2c-0.3-2.1-2.5-3.4-4.5-3.4
				c0.6-0.9,1.2-1.8,1.8-2.8c0.2,0,0.3,0.1,0.5,0.2c0.6,0.2,1.1,0.4,1.6,0.7c0.9,0.4,1.7,1.2,2.6,1.5c0.2,0.1,0.4-0.2,0.3-0.4
				c-0.8-1.4-3-2.2-4.6-2.6c0.5-0.9,1-1.8,1.5-2.7c0.7,0.1,1.4,0.2,2.1,0.5s1.4,0.7,2.1,0.9c0.2,0,0.4-0.2,0.3-0.4
				c-0.8-1.2-2.6-1.6-4.1-1.8c0.7-1.4,1.3-2.8,1.8-4.1c0.2-0.3,0.5-0.6,0.7-0.9c0.1-0.2-0.1-0.4-0.3-0.3l0,0
				c0.1-0.4,0.3-0.8,0.4-1.1c0.1-0.4-0.5-0.6-0.7-0.3c-0.7,1-1.3,1.9-1.9,2.9c-4.5,3.2-8.6,7-13.1,10.3c-5.3,3.8-10.8,7.2-16.5,10.3
				c-6.1,3.3-12.4,6.1-18.9,8.6c-2.8,1.1-5.7,2-8.5,2.9c-3.3,1-7.3,2.6-10.9,2.4c0.3-0.4,0.6-0.8,0.9-1.2c2.3-3.5,2.5-8,0.2-11.4
				c0.3-0.2,0.3-0.8-0.2-0.9c-0.2,0-0.4-0.1-0.6-0.1c-0.1-0.1-0.1-0.1-0.2-0.2c-0.4-0.5-1.1-0.3-1.5,0.1c-0.5,0-1,0-1.6,0.1
				c2.3-0.9,4.8-1.5,7.2-2.1c0.1,0.1,0.2,0.3,0.3,0.4c0.4,0.5,0.8,1.1,1.1,1.7c0.6,1,0.8,2.3,1.5,3.3c0.2,0.2,0.5,0.2,0.5-0.1
				c0.1-1.2-0.7-2.5-1.3-3.6c-0.4-0.6-0.8-1.3-1.3-1.9c1-0.2,1.9-0.5,2.8-0.7c0.4-0.1,0.9-0.3,1.3-0.4c0.3,0.4,0.8,0.8,0.8,0.9
				c0.5,0.6,0.9,1.2,1.3,1.8c0.6,1,0.7,2.3,1.3,3.2c0.1,0.2,0.5,0.2,0.6-0.1c0.3-1.6-0.9-3.4-1.8-4.6c-0.2-0.3-0.7-1-1.3-1.6
				c1.8-0.5,3.5-1,5.2-1.6c1,0.9,1.7,2.1,2.2,3.4c0.6,1.4,0.6,3,1,4.4c0.1,0.3,0.5,0.3,0.6,0c0.5-2.5-0.8-6.3-2.9-8.1
				c1.2-0.4,2.4-0.8,3.6-1.1c0.7,0.5,1.2,1.9,1.5,2.5c0.4,0.9,0.4,2,0.8,2.9c0.1,0.3,0.5,0.3,0.6,0c0.4-1.3-0.2-2.8-0.8-4
				c-0.2-0.5-0.6-1.2-1.1-1.7c1.2-0.4,2.4-0.8,3.6-1.2c0.9,1,1.8,2,2.3,3.4c0.5,1.3,0.5,2.6,0.7,3.9c0,0.2,0.3,0.2,0.4,0
				c0.9-2.4-0.5-5.9-2.6-7.6c1.6-0.6,3.3-1.2,4.9-1.8l0,0c0.9,0.8,1.6,1.6,2.2,2.6c0.5,1,0.6,2.2,0.8,3.3c0.1,0.2,0.3,0.2,0.4,0
				c0.7-2.2-0.8-4.9-2.6-6.2c1.7-0.6,3.3-1.3,4.9-2c0.3,0.4,1.6,2.1,1.8,2.4c0.6,1.1,0.4,2.4,1,3.4c0.1,0.1,0.3,0.2,0.4,0
				c0.4-0.9,0-2.2-0.4-3.1c-0.5-1.2-1.2-2.1-2.2-2.9c1.2-0.5,2.5-1.1,3.7-1.7c0.5,0.8,1.1,1.4,1.5,2.2c0.4,1,0.4,2,0.7,3
				c0.1,0.2,0.4,0.3,0.5,0.1c0.7-1.7-0.4-4.6-2-5.6c1-0.5,2-1,3-1.5c0.5,0.6,1,1.2,1.4,1.9c0.5,0.9,0.7,1.9,1.1,2.7
				c0.1,0.2,0.4,0.1,0.4-0.1c0.2-1.7-1-3.5-2.2-4.8c1-0.5,2.1-1.1,3.1-1.7c0.2,0.1,0.4,0.3,0.5,0.4c0.4,0.4,0.8,0.8,1.1,1.3
				c0.5,0.8,0.7,1.8,1.2,2.7c0.1,0.2,0.4,0.1,0.4-0.1c0.2-1.2-0.4-2.4-1.1-3.3c-0.3-0.4-0.8-1-1.3-1.4c1.9-1.1,3.7-2.2,5.5-3.4
				l0.1,0.1c0.9,0.4,1.7,0.9,2.4,1.7c0.3,0.4,0.6,0.8,0.8,1.2c0.2,0.4,0.3,1,0.6,1.4c0.1,0.1,0.4,0.2,0.4-0.1
				c0.2-0.9-0.5-2.1-1.1-2.8c-0.7-0.8-1.5-1.5-2.6-1.8l0.1-0.1c1.5-1,3-2.1,4.4-3.2c0.5,0.6,1.2,1.1,1.7,1.6
				c0.4,0.4,0.8,0.7,1.1,1.1c0.3,0.3,0.5,0.7,0.8,1.1c0.1,0.1,0.4,0.1,0.5-0.1c0.2-0.9-0.6-1.6-1.2-2.2c-0.7-0.7-1.4-1.4-2.2-2.1
				c1-0.8,2-1.6,2.9-2.5c0.3,0.3,0.7,0.5,1,0.9c0.5,0.5,0.8,1.2,1.4,1.7c0.1,0.1,0.4,0.1,0.4-0.2c-0.1-0.7-0.6-1.3-1.1-1.9
				c-0.3-0.4-0.7-0.7-1.1-1c2.2-2,4.3-4.2,6.2-6.4c0.6-0.4,1.3-0.7,1.9-1.1c0.6-0.4,0.5-1.1,0.2-1.5c1.1-1.4,2.1-2.9,3.1-4.4
				c5.7-8.9,7.5-19.5,11.2-29.2c0.7,0.6,1.4,1.1,2.2,1.6c5.1,3,10.7,2.9,16,1.3C275.7,561,271.1,570.8,266.6,580.5z M293.5,539.5
				c-7.7,8.3-21.7,15.1-31.4,5.6c-4.7-4.6-5.3-14.2-6.8-20.3c-1.6-6.9-3.3-13.7-5-20.6c-2.4-10.1-4.8-20.8-10.6-29.5
				c4.8,1.3,9.6,2.6,14.3,4c16.9,4.8,34.7,9.9,50.7,17.9c-0.6-0.3-1.1,0.6-0.5,1c5,3.7,9.2,7.9,12.6,13
				C309.2,520.3,301.9,530.5,293.5,539.5z M235.6,657c-2.8,1.7-6.7,1.8-9.8,2.1c-2.1,0.2-4.1,0.5-6.1,1.3c-1,0.4-1.7,1.2-2.5,1.9
				c-0.9-4.5,5.6-9.7,8.6-11.6c2.5-1.6,5.5-2.4,8.5-2.6c0.1,0.7,1.2,1,1.7,0.3c0.1-0.1,0.2-0.2,0.3-0.3c0.7,0,1.4,0.1,2.1,0.2
				c-0.2,0.4-0.1,1.1,0.5,1.2c1.1,1.3,1.1,2.8,0.1,4.4C238.1,655.2,237,656.3,235.6,657z M263.6,654.6c-4,1-8,2.1-12.1,3.1
				c-3,0.8-12.5,4.8-14.7,0.8c3.5-2.1,5.7-5.7,4.2-9.9c0.2-0.2,0.2-0.5-0.1-0.7c-1-0.6-2-0.9-3-1.2c1.7-1.2,3.8-1.8,6.1-2.2
				c0.9,0.9,1.6,1.8,2.1,3.1c0.5,1.2,0.3,2.5,0.6,3.7c0.1,0.3,0.4,0.3,0.6,0.1c1.1-2.2-0.3-5.3-2.1-7c1.9-0.2,3.8-0.3,5.6-0.4
				c0.8,0.5,1.3,1.2,1.6,2.2c0.4,1.2,0,2.4,0.4,3.6c0.1,0.3,0.5,0.3,0.6,0c0.7-1.8,0.2-4.4-1.2-5.9c1.4,0,2.7-0.1,3.9-0.2
				c0.8,0.8,1.6,1.6,2,2.7c0.4,1.2,0,2.3,0.2,3.5c0,0.3,0.4,0.3,0.6,0.2c0.9-1,0.6-2.7,0.2-3.9c-0.3-1-0.9-1.9-1.7-2.5
				c1.7-0.2,3.3-0.3,4.9-0.5c0,0.1,0,0.3,0.1,0.4c0.8,0.9,1.3,1.8,1.6,2.9c0.2,0.9,0.2,1.9,0.3,2.8c0,0.2,0.4,0.3,0.5,0.1
				c1.1-2-0.1-4.8-1.6-6.3c1.7-0.2,3.4-0.4,5.1-0.7v0.1c0.6,1,1.1,1.8,1.4,2.9c0.3,1,0.2,2,0.4,2.9c0.1,0.3,0.4,0.2,0.5,0
				c0.7-1.8-0.4-4.7-1.7-6.1c1.7-0.2,3.3-0.5,5-0.8c0.6,0.9,1.1,1.8,1.6,2.8c0.5,1.1,0.4,2.2,0.4,3.4c0,0.3,0.3,0.3,0.5,0.1
				c1.4-2-0.2-4.7-1.5-6.6c1.6-0.3,3.1-0.6,4.7-0.9c0.3-0.1,0.6-0.1,0.9-0.2c0.3,0.6,0.5,1.2,0.7,1.8c0.2,1,0,2,0.2,2.9
				c0.1,0.3,0.4,0.3,0.5,0.1c0.9-1.3,0.4-3.4-0.5-5c1.4-0.3,2.7-0.6,4.1-1c0.4,0.8,0.6,1.5,0.7,2.4c0.1,1-0.3,1.8-0.3,2.8
				c0,0.3,0.3,0.4,0.5,0.2c1.4-1.3,0.8-4-0.1-5.6c1.1-0.3,2.2-0.6,3.2-0.9c0.1,0.9,0.1,1.7,0.2,2.6c0.1,0.9,0.1,2,0.6,2.9
				c0.1,0.2,0.5,0.2,0.5-0.1c0.3-0.9,0-1.9-0.1-2.8c-0.1-1-0.2-1.9-0.4-2.9c1.4-0.4,2.8-0.9,4.2-1.4c0.2,0.7,0.4,1.5,0.4,2.3
				c0.1,0.8-0.1,1.7-0.1,2.5c0,0.3,0.3,0.4,0.5,0.1c1-1.4,0.6-3.6-0.1-5.1c5.4-2,10.7-4.5,15.2-7.7c-4.8,5.8-10.5,10.9-16.8,15.6
				c-2.3,1.7-4.7,3.4-7.2,5.1c-0.2-0.1-0.4-0.2-0.7-0.1C278.5,650.6,271,652.6,263.6,654.6z M230.2,693.4
				c-4.5,2.6-8.3,5.5-10.4,10.2c-4.2-5.2-1.1-13.3,2.2-18.3c3.6-5.5,9-8,14.7-10.5c4.7,1.3,5.2,6.8,2.8,11.2
				C237.6,689.4,233.5,691.4,230.2,693.4z M274.5,703.7c-1.2,1.5-2.4,2.8-3.4,4.4c-1.8,2.9-2.3,6.4-2.1,9.8c-4.4-1.9-4.1-7.9-3.9-12
				c0.1-4.7,1.8-9.3,6.2-11.6c0.1-0.1,0.2-0.1,0.3-0.2C276.1,694.6,278.3,699.3,274.5,703.7z M343.4,600.5c-1.7,5.6-3.3,11.3-4.9,17
				c-0.8,2.9-3.4,7.6-1.3,10.4c1.6,2.1,6.6,2.4,8.9,3c0.7,0.2,1.4,0.3,2,0.5c0,0.1,0,0.1,0.1,0.2c0.1,0.1,0.1,0.1,0.1,0.1
				c0.3,0.9,0.5,1.8,0.6,2.8c0.1,1-0.1,2,0.2,3c0.1,0.2,0.3,0.2,0.5,0.1c1-1.5,0.4-4.2-0.4-5.9c1.1,0.2,2.1,0.5,3.2,0.7
				c0.1,0.9,0.8,1.8,1.1,2.6c0.5,1.6,0.1,3.1,0.2,4.7c0,0.3,0.3,0.3,0.5,0.1c0.7-1,0.7-2.4,0.5-3.6c-0.1-0.8-0.3-1.6-0.6-2.3
				c-0.2-0.4-0.5-0.8-0.7-1.3c1.4,0.3,2.7,0.5,4.1,0.8c0.3,1,0.6,2,0.7,3.1c0.1,1-0.1,2,0.2,3c0.1,0.2,0.4,0.3,0.5,0.1
				c0.8-1.6,0.4-4.1-0.3-6c1.3,0.2,2.5,0.4,3.8,0.6c0.1,0,0.2,0,0.3,0.1c0.2,1,0.4,2,0.4,3c0.1,1.4-0.3,2.8-0.3,4.2
				c0,0.3,0.4,0.4,0.5,0.1c1.2-1.9,1.1-4.8,0.4-7.1c1.4,0.2,2.8,0.5,4.1,0.9c-0.1,1,0,2,0,3c0,1.4-0.3,2.9,0,4.4
				c0.1,0.4,0.5,0.3,0.6,0c0.5-1.2,0.4-2.5,0.5-3.7c0-1,0.1-2.2,0-3.2c1.2,0.4,2.4,1,3.4,1.7c0.1,1.1,0.1,2.1,0.1,3.2
				c-0.1,1.5-0.7,2.9-0.9,4.3c0,0.4,0.5,0.4,0.6,0.2c1.3-1.7,1.5-4.6,1.1-6.9c1.2,1.1,2.2,2.5,2.8,4.4c0.4,1.6,0.2,3.2-0.5,4.7
				c-1.5,3.2-4.9,0.5-6.5-0.2c-1.9-0.9-4-1.6-6-2.3c-4.5-1.5-9.3-2.2-13.9-2.8c-4-0.6-8-1.3-12-0.5c-3.3,0.6-5.1,3.8-6.4,6.6
				c-2.1,4.7-4.6,9-7.5,13.2c-6.4,9.2-14.4,17.4-21.8,25.9c-2.8,3.2-19.2,24.7-23.8,16.7c-0.1-0.1-0.1-0.2-0.2-0.3
				c0.8-1.3,1.4-2.7,1.4-4.4c0.1-4.1-3.8-6.3-7.4-6.1c-0.3-0.1-0.6-0.2-0.9,0c-0.1,0-0.2,0.1-0.3,0.1c-0.5,0.1-1,0.3-1.5,0.5
				c0.1-0.1,0.1-0.2,0.1-0.4c-0.7-2.9,3-5.3,7-7.2c0,0,0.1,0.1,0.2,0.1c1.9,0.3,3.3,1.1,4.7,2.4c1.1,1.1,1.8,2.7,3,3.6
				c0.3,0.2,0.6-0.1,0.5-0.4c-0.4-1.6-2-3.2-3.2-4.3c-1.1-1-2.4-1.8-3.9-2c1.6-0.7,3.3-1.3,4.6-1.9c1.5,0.3,2.8,0.7,4.2,1.5
				c1.8,1,2.6,2.7,4.1,4c0.3,0.2,0.6,0,0.5-0.3c-0.3-1.8-2.2-3.3-3.6-4.3c-1-0.7-2.3-1.2-3.5-1.5c0.3-0.1,0.6-0.3,0.8-0.4
				c1.7-0.8,3.3-1.7,4.9-2.7c0.9,0.5,1.7,1,2.4,1.6c1,0.8,1.5,2.2,2.6,2.9c0.2,0.1,0.5,0,0.5-0.3c-0.1-1.3-1.5-2.5-2.4-3.3
				c-0.7-0.6-1.4-1.1-2.3-1.5c1.5-1,3-2,4.5-3.1c0.9,0.4,1.7,0.8,2.4,1.5c0.8,0.7,1.4,1.7,2.4,2.2c0.2,0.1,0.5-0.1,0.4-0.3
				c-0.4-1.2-1.5-2.1-2.4-2.9c-0.6-0.5-1.3-0.9-2-1.2c0.7-0.6,1.5-1.2,2.2-1.8s1.4-1.3,2.1-2c0.7,0.4,1.4,0.8,2.1,1.4
				c0.9,0.8,1.4,2,2.4,2.7c0.2,0.2,0.6,0.1,0.6-0.2c-0.1-1.3-1.3-2.4-2.2-3.2c-0.6-0.6-1.4-1-2.1-1.4c1.1-1.2,2.1-2.4,3.1-3.7
				c0.6,0.3,2.3,0.9,2.6,1c1,0.5,1.8,1.6,2.8,2c0.2,0.1,0.6-0.1,0.5-0.4c-0.5-1.4-2.3-2.3-3.5-2.9c-0.4-0.2-1.1-0.5-1.8-0.7
				c1.1-1.5,2-3,3-4.5c1,0.4,2,0.6,3,1.1c1.2,0.6,1.9,1.7,3.1,2.3c0.2,0.1,0.6-0.1,0.5-0.4c-0.6-1.9-4-3.7-6.1-3.6
				c0.2-0.3,0.4-0.7,0.6-1c0.7-1.2,1.4-2.4,2.2-3.6c-0.1,0.1,0,0.3,0.2,0.4c1.1,0.6,2.2,1,3.3,1.7c1,0.6,1.8,1.4,2.9,1.8
				c0.3,0.1,0.5-0.2,0.4-0.5c-0.6-1-1.7-1.6-2.7-2.2c-1.1-0.6-2.3-1.2-3.6-1.4c-0.1,0-0.3,0-0.4,0.1c0.9-1.6,1.9-3.1,2.8-4.7
				c0.9,0.2,1.7,0.5,2.5,1c0.8,0.4,1.4,1.2,2.3,1.5c0.2,0.1,0.5-0.2,0.4-0.4c-0.6-1.6-3-2.5-4.8-2.7c1.1-1.9,2.1-3.8,3-5.8l0,0
				c0.2-0.2,0.2-0.4,0.2-0.6c0.3-0.6,0.6-1.3,0.8-1.9c0.1-0.3-0.3-0.5-0.5-0.3c-0.4,0.5-0.8,1-1.2,1.6c-0.1,0-0.3,0.1-0.4,0.2
				c-11.5,10.1-22.8,20.3-36.7,27.1c-6.6,3.3-13,6.5-19.3,10.5c-6.3,4-14,9.8-21.8,9.3c2-1.7,3.8-3.6,4.9-6.2
				c2.3-5.3-0.6-10.8-5.7-12.1c0.5-0.2,1-0.4,1.4-0.6c1.1-0.5,2.2-0.9,3.3-1.4c0.9,0.8,2,1.3,2.9,2.2c1.1,1.2,1.3,2.7,2,4.1
				c0.1,0.3,0.6,0.2,0.7-0.1c0.4-2.3-2.1-5.9-4.6-6.7c1.6-0.7,3.2-1.4,4.8-2.1c0.4-0.2,0.7-0.3,1.1-0.5c0.9,0.7,1.9,1.4,2.7,2.3
				c1.1,1.2,1.4,2.8,2.4,3.9c0.1,0.1,0.4,0.1,0.5-0.1c0.2-1.4-0.8-2.9-1.7-3.9c-0.8-0.9-1.8-2-2.9-2.6c1.5-0.7,3.1-1.3,4.6-2
				c1,0.5,1.9,1.1,2.7,1.9c0.5,0.6,1,1.3,1.3,2c0.3,0.6,0.4,1.4,0.8,2c0.1,0.2,0.5,0.2,0.6-0.1c0.3-1.4-0.8-2.9-1.6-4
				c-0.7-0.9-1.7-1.7-2.7-2.3c1.6-0.7,3.3-1.3,5-2c1.4,0.4,2.5,1,3.4,2.1c1,1.1,1.1,2.5,1.7,3.8c0.1,0.2,0.5,0.2,0.5-0.1
				c0.4-1.5-0.7-3.2-1.6-4.3c-0.7-0.9-1.8-1.6-2.9-1.9c1.3-0.5,2.7-1,4.1-1.4c0.9,0.7,2,1.3,2.8,2.2c1,1.1,1.2,2.4,1.9,3.6
				c0.1,0.2,0.4,0.2,0.5-0.1c0.3-2.2-2-5.2-4.2-6.1c0.6-0.2,1.3-0.4,1.9-0.6c1.2-0.4,2.4-0.8,3.6-1.2c0.9,0.8,1.7,1.7,2.6,2.5
				c0.4,0.4,0.9,0.9,1.3,1.3c0.4,0.5,0.6,1.1,0.9,1.6c0.1,0.2,0.5,0.2,0.5-0.1c0.3-1.1-0.6-2-1.3-2.7c-1-1.1-2.1-2-3.2-3
				c4.4-1.7,8.5-3.8,12.5-6.2c0.9,0.9,1.7,1.6,2.4,2.7c0.7,1.1,0.7,2.4,1.3,3.6c0.1,0.2,0.4,0.1,0.4-0.1c0.8-2.3-1.4-5.5-3.5-6.6
				c1.7-1.1,3.4-2.2,5.1-3.4c1,0.6,1.8,1.3,2.5,2.3c0.6,1,0.6,2.2,1.1,3.2c0.1,0.3,0.5,0.1,0.6-0.1c0.5-1.2-0.4-2.9-1.1-3.9
				c-0.6-0.9-1.4-1.6-2.3-2.1c1.4-1,2.7-2,4.1-3c0.1,0,0.1,0.1,0.2,0.1c0.2,0.1,0.4-0.1,0.4-0.3c0.1,0.1,0.2,0.2,0.4,0.2
				c0.3,0.2,0.6,0.4,0.9,0.6c0.4,0.3,0.8,0.8,1.1,1.2c0.6,0.9,0.7,2,1.2,2.9c0.1,0.2,0.4,0.2,0.4,0c0.8-1.7-0.8-4-2.1-4.9
				c-0.3-0.2-0.8-0.5-1.2-0.7c1.2-0.9,2.4-1.8,3.5-2.8c1.1,0.5,2.1,0.9,3,1.8c0.5,0.5,0.9,1,1.2,1.7c0.3,0.5,0.3,1,0.7,1.5
				c0.2,0.2,0.5,0.1,0.6-0.2c0.5-1.3-0.8-3-1.7-3.8c-0.8-0.7-1.8-1.4-2.9-1.7c1.2-1,2.4-2,3.5-3c-0.1,0.2-0.1,0.5,0.1,0.5
				c1,0.2,1.9,0.5,2.7,1.2c0.7,0.6,1,1.5,1.6,2.1c0.2,0.1,0.5,0.1,0.5-0.1c0.1-1-0.7-2-1.5-2.6c-0.9-0.7-2.1-1.3-3.3-1.2
				c-0.1,0-0.1,0-0.2,0.1c7.8-7.1,13.9-15.4,17.9-25.3c5.5-13.4,9.3-27.4,11.6-41.7c2.2,1,4.9,1.5,8,1.5c3.9-0.1,7.6-0.9,11-2.3
				C349.5,579.7,346.5,590.2,343.4,600.5z M469.1,472.8c-17.1,5.1-34.9,4.1-52.3,6.7c-11.4,1.7-25,6-31.9,15.9
				c-0.3,0.1-0.6,0.3-0.6,0.7c0,0.1,0,0.1,0,0.2c-0.8,1.3-1.5,2.7-2.1,4.2c-0.1,0.3,0.3,0.4,0.4,0.2c0.5-0.8,1-1.5,1.6-2.2
				c-0.9,15.9-4.2,32-10.5,46.5c-6.1,13.9-20,27.5-36.5,24.1c-8.6-1.8-10.9-12-11.1-19.4c-0.2-7.7,1.1-15.2-0.3-22.9
				c-1-5.5-3.1-10.9-6.2-15.7c0.8-1.1-0.4-2.6-1.4-2.1c-3.5-5-8.1-9.4-13.2-12.5c8.4,4.2,16.4,9.3,23.4,15.6c1.1,1,2.7-0.6,1.7-1.7
				c-17.6-18.2-45-25.7-68.5-32.7c-27.5-8.2-55.5-14.5-82.8-23.5c-23.5-7.8-46.4-18.1-66.5-32.6c-20-14.4-35.8-33.5-45.9-55.9
				c-19.1-42.1-17.5-92.3-4.4-135.8c6.7-22.2,17.7-43.7,35.9-58.6c13.7-11.2,35.6-17.4,41-36.1c6.3,2.6,13.1,3,20.6,1.4
				c11.6-2.6,23.1-10.3,31.9-18.1c8.5-7.5,12.2-19.7,11.4-30.8c-1.6-23.3-14.5-44.9-38.1-50.8c-11.6-2.9-23.7-0.5-34.1,5
				c-3.3,1.8-6.4,3.8-9.5,6c-0.4-14.2,11.3-23.9,24-27.6c13.1-3.8,29.2-3.6,42.5-0.7c12.7,2.8,24.2,9.5,34.1,17.7
				c4.7,3.9,9,8.2,12.9,12.9c5.2,6.2,7.9,13.7,9.7,21.5c6.5,27.2-2.5,56-14.1,80.6c-2.8,6-6.1,11.9-10.3,17.1
				c-3.8,4.8-8.4,8.9-12.3,13.5c-7.9,9.4-9.3,20.2-8.8,32.1c0.1,1.6,0.3,3.2,0.5,4.7c0.1,1,1.5,1,1.5,0c0.1-4.5-0.1-9,0.2-13.5
				c3.4,8.2,12.1,12,20.7,12.7c6.4,0.5,12.9-0.9,19.1-2c7.7-1.3,15.3-2.7,23-4c15-2.6,30.1-6.2,45.3-6.4c14.4-0.2,29,1.5,43.4,2.5
				c15,1,29.3,2.2,43.2,8.1c12.9,5.5,25.3,12.7,37.6,19.4c12.8,6.9,25.6,14,38.2,21.3c10.6,6.2,25,13,26,26.9
				c0.3,4.5-1.4,9-4.9,11.9c-0.1,0-0.2,0.1-0.3,0.1c-0.5,0.1-0.4,0.7-0.1,0.9c0.2,0.3,0.5,0.5,0.8,0.3c0.2-0.1,0.4-0.3,0.5-0.4
				c2.9-0.5,5.8-1.2,8.7-1.9c2.3-0.6,5-1.1,6.7-2.8c1.9-1.9,3.5-4.6,3.5-7.3c6.2,8.7,2.6,20.8,3.4,30.8c0.8,10.5,7.6,20.2,11.5,29.7
				c4.7,11.5,7.5,23.9,4.8,36.3c-2.5,11.6-10.3,20.4-16.3,30.3c-0.3,0.5,0.4,1.1,0.8,0.7c1.3-1.4,2.5-2.8,3.7-4.3
				c0.1,0.2,0.4,0.4,0.7,0.2c0.3-0.3,0.7-0.6,1-0.8c4.5-1.9,9-4.5,13.2-7.6C523.6,432.4,503.1,462.7,469.1,472.8z M577,304.4
				c-1.5,10.7-4.6,21.1-8.8,31c-2.3,5.4-5.6,10.7-7.4,16.3c-0.2-4.1-1.1-8.4-2.2-12c-1.6-5.1-5-11.2-9-14.8c-0.1-0.1-0.4,0-0.3,0.2
				c1.9,2.6,3.7,5.4,5.2,8.2c2.3,15.2,2.9,31.5-3.3,46c-4.7,11-15.6,19.2-25.9,25.6c4.9-5,9.1-11.2,11.7-17.6
				c3.3-8.3,3.8-17.6,2.5-26.4c-1.4-9.3-5.4-17.7-10.1-25.7c-2.4-4.1-4.9-8.1-6.6-12.6c-1.9-5-2-10-1.1-15.2c0-0.2-0.3-0.3-0.4-0.1
				c-2.7,8.2,0.7,16.6,4.6,23.7c2.1,3.8,4.4,7.4,6.4,11.3c2.3,4.5,4,9.2,5.3,14.1c2.4,9.3,2.3,19.2-0.7,28.4
				c-1.4,4.5-3.7,8.5-6.5,12.3c-2.4,3.2-5.3,5.9-8,8.9c4.9-6.7,9-14.1,11.3-21.9c3.5-11.8,0.7-24.4-3.4-35.6
				c-4.6-12.5-12.8-23.6-12.9-37.4c0-9.7,1.8-20.7-5.5-28.3c0-0.1-0.1-0.1-0.1-0.2c-0.5-2.8-3.3-5.6-4.7-7.7c-2.2-3.2-5.2-5-8.6-6.9
				c-0.4-0.2-0.6,0.3-0.3,0.6c2.9,2.2,5.8,3.8,7.9,6.9c1.5,2.2,3.2,4.3,4.1,6.7c-0.2,0.2-0.2,0.5,0.1,0.7l0,0
				c-0.2,4.8-1.1,8.4-6.2,10.2c-2.9,1-5.9,1.8-8.9,2.6c4.5-4.8,5.1-12.2,2.4-18.4c-3-7-9.1-11.8-15.5-15.8c0,0,0-0.1,0.1-0.2
				c0.6-11.6,5.8-22.4,14.8-29.9c9.2-7.6,21.7-9.7,33.2-6.8c5.7,1.4,11.1,4.2,15.5,8c5.2,4.5,9.3,10.5,13.1,16.1
				c7.5,10.8,11.2,23.4,11.8,36.5c0.5,9.6-1.1,18.9-2.8,28.3c-0.1,0.4,0.5,0.6,0.6,0.2c3.7-11.4,4.3-24.3,2.6-36.1
				c-0.9-6.2-2.5-12.2-4.9-17.9c-2.5-5.9-6-11.2-9.8-16.3c-3.6-4.9-7.3-9.7-12.2-13.4c-4.3-3.2-9.3-5.4-14.5-6.7
				c-10.3-2.5-21.4-0.8-30.4,5c-10.8,7-18.2,19.9-17.9,32.9c-1.4-0.8-2.7-1.7-4.1-2.4c1-9.4,3.6-17.8,9.4-25.4
				c6-7.7,14.8-12.5,24.2-14.4c20.4-4.3,39.7,9,51.2,24.7c5.8,7.8,9.1,16.9,12.3,26C578.7,281.4,578.7,292.4,577,304.4z"/>
			<path class="st32" d="M381.3,422.3c-1.2-8.2-5-15.9-8.9-23c-3.9-7.3-8.1-14.4-12.4-21.5c-5.8-9.5-12.2-19-19.9-27.2
				c18-15.3,29.8-38.9,26.2-62.8c-3.1-20.5-19.2-38.6-39.6-42.6c-0.3-0.2-0.7-0.3-1.1-0.2c-0.3-0.1-0.6-0.1-1-0.2
				c-0.1-0.3-0.4-0.4-0.8-0.5c-14.9-0.2-29.8,0.3-44.6,0.7c-11.7,0.3-24.5-0.7-35.4,4.4c-10.2,4.7-14,16.6-16.4,26.7
				c-3.1,12.9-3.3,26.4-1.5,39.6c3.3,25.3,15.1,48.6,30.3,68.8c2.9,3.8,5.9,7.6,9.1,11.2c-0.2,0.2-0.4,0.5-0.5,0.8
				c-0.1,0.2,0.1,0.5,0.3,0.6c0.6,0.4,0.6,0.3,1.3,0l0.1-0.1c5,5.6,10.3,10.9,15.9,15.8c10.2,8.8,22.2,15.4,34.3,21.4
				c14.9,7.4,30.7,13.1,47.3,15.2c6.5,0.8,11.8-0.5,15-6.5C382.3,436.6,382.3,429,381.3,422.3z M261.3,386.3
				c-17.1-21.3-29.7-46.6-33-73.9c-1.4-11.8-0.7-23.9,1.9-35.5c2.7-11.9,7.4-23,20-26.8c10.7-3.2,23.4-2,34.5-2.3
				c13-0.3,26.1-0.6,39.1-1.5c0.3,0,0.6,0.1,0.9,0.2c0,0.1,0.1,0.3,0.2,0.4c11.2,15.3,4.4,35.2-7.3,48
				c-11.6,12.7-27.7,19.9-41.8,29.4c-1.2-0.7-2.4-1.2-3.9-1.4c-0.8-0.1-0.9,1-0.4,1.4c0.7,0.5,1.4,1,2.1,1.5
				c-0.2,0.2-0.5,0.3-0.7,0.5c-0.7,0.5-0.1,1.6,0.7,1.2c0.4-0.2,0.9-0.4,1.3-0.7c1.7,1.4,3.1,3,4.4,5.1c1.9,3.2,3.1,6.9,4.3,10.4
				c2.8,8.2,4.2,16.7,3.4,25.3c-0.7,7.6-4.1,14.8-9.2,20.4c-2.2,2.4-5,4.2-7.9,5.6c-0.7,0.3-1.4,0.5-2,0.8
				C265.6,391.6,263.5,389,261.3,386.3z M378.5,436.9c-0.1,0-0.2-0.1-0.3-0.1c-9.1,0.5-17.6-2.7-25.8-6.3c-7-3-13.9-6.1-20.7-9.5
				c-13.6-6.8-26.7-15.3-36-27.5c-0.2-0.3-0.7,0-0.5,0.3c9.1,12.6,22.2,21.2,35.9,28.2c7.3,3.7,14.7,7,22.2,10.3
				c7.9,3.4,16.2,6.3,24.9,5.8c-1.5,4.7-4.5,8.5-10,8.8c-6.5,0.3-13.6-1.8-19.8-3.4c-7.3-1.9-14.3-4.6-21.2-7.6
				c-12.7-5.5-25.2-12.2-36.4-20.2c-8.1-5.8-15.2-12.8-21.8-20.3c2.5-1,5.9-2.5,6.3-2.8c2.6-1.7,4.9-3.9,6.7-6.4
				c4.9-6.5,7.2-13.9,7.7-22c0.5-9.3-2.1-18.7-5.3-27.3c-1.4-3.8-3.5-8.6-6.8-11.5c8-4.3,15.7-9.1,23.3-14
				c8.3-5.4,16.1-11.6,22.4-19.4c9.9-12.4,13.9-31,5.1-44.9c7.5,1.9,14.2,5.9,19.7,11.1c0.5,12.7-4.4,24.9-12.3,34.7
				c-3.9,4.9-8.6,9.2-13.7,12.9c-4.9,3.7-10.3,6.5-15.6,9.6c-0.4,0.3-0.1,0.8,0.4,0.6c11.7-5,22.7-13.6,30.6-23.6
				c7.4-9.4,12-21,11.8-33c4.6,4.7,8.4,10.3,11.1,16.4c-0.6,5.7-2.5,11-5.4,15.9c-3.5,5.6-8.6,9.8-14,13.5
				c-5.2,3.5-10.6,6.6-16.2,9.5c-6.1,3.1-12.5,5.4-18.8,7.9c-0.3,0.1-0.2,0.6,0.1,0.5c6.6-1.7,13-4.6,19.1-7.6
				c6.3-3.1,12.4-6.7,18.2-10.7c9.4-6.6,16.1-15.6,17.9-26.9c1.3,3.4,2.4,7,3,10.6c1,5.6,1,11.1,0.2,16.6
				c-6.9,7.5-15.8,12.5-25.5,15.7c-11.5,3.8-23.5,4.6-35.4,6.2c-0.3,0-0.3,0.5,0,0.5c21-1.1,45.3-4.4,60.6-20.3
				c-0.9,5-2.5,9.9-4.6,14.5c-8.6,4.3-17.8,7.2-27.3,8.9c-10.2,1.8-20.4,1.4-30.7,0.5c-0.3,0-0.4,0.5-0.1,0.6
				c18.9,4,39.9,0.1,57.2-8.2c-2.4,4.9-5.3,9.5-8.7,13.8c-7.8,3.3-16.7,2.4-24.9,2.1c-8.6-0.3-17-1.5-25.2-4.3
				c-0.2-0.1-0.3,0.2-0.1,0.3c7.8,3.9,16.8,4.7,25.3,5.2c7.7,0.5,15.9,1.1,23.4-1.3c-3,3.6-6.3,6.9-9.8,9.9
				c-0.1-0.1-0.2-0.2-0.2-0.2c-0.2,0.4-0.4,0.7-0.8,1c-2.9,1.3-6.2,0.9-9.4,0.4c-3.7-0.5-7.3-1.2-10.9-2c-7.1-1.7-13.8-4.8-19.5-9.4
				c-0.3-0.2-0.6,0.1-0.4,0.4c5.4,5.7,12.8,8.7,20.3,10.6c3.9,1,7.8,1.7,11.8,2.2c2.4,0.3,4.9,0.5,7.2-0.2c0.3,0.4,0.7,0.6,1.2,0.6
				c4.1,4.4,7.9,9.1,11.4,13.9c-10.6-0.3-20.8-3.2-30.5-7.4c-9.6-4.1-18.4-9.8-27.6-14.6c-0.3-0.1-0.5,0.2-0.2,0.4
				c9,6.2,18.8,11.5,28.8,15.7c9.5,4.1,19.6,6.8,30,7c0.1,0,0.2,0,0.3-0.1c8.4,11.6,15.6,24.2,22,36.9h-0.1
				c-13.7-1-26.8-5.2-39.2-10.8c-6.1-2.8-12-6-17.8-9.3c-6-3.5-11.8-7.4-17.9-10.8c-0.3-0.2-0.6,0.3-0.3,0.5
				c5.6,4.1,11.7,7.7,17.6,11.2c6,3.5,12.2,6.8,18.5,9.7c12.3,5.7,25.4,9.7,39,10.7c0.3,0,0.4-0.1,0.5-0.3c0.3,0.5,0.5,1,0.8,1.6
				c2.5,5,4.4,10.3,5.4,15.7c-14.7-3.1-29-7.9-42.6-14.3c-6.8-3.2-13.4-6.8-19.8-10.7c-6.4-3.9-12.2-8.6-18.4-12.8
				c-0.3-0.2-0.5,0.2-0.3,0.4c5.3,4.9,11.5,9,17.6,12.8c6.5,4.2,13.4,7.9,20.4,11.2c13.8,6.6,28.4,11.4,43.3,14.5
				c0.2,1.3,0.4,2.6,0.4,3.9C379.5,430.2,379.3,433.7,378.5,436.9z"/>
			<path class="st14" d="M267.8,395.9L267.8,395.9"/>
			<path class="st32" d="M360.5,384c-12-1.1-23.5-4.5-34.5-9.4c-10.7-4.8-20.6-10.9-30.6-17c-0.3-0.2-0.6,0.3-0.3,0.5
				c19.1,13.6,41.7,25.1,65.4,27C361.3,385.3,361.3,384.1,360.5,384z"/>
			<path class="st32" d="M281.2,657.4c-0.5-0.4-2.7-2.1-3-0.8c-0.1,0.3,0.2,0.5,0.4,0.4c0,0,0,0,0.1,0c0.1,0,0.1,0,0.1-0.1
				c0.3,0,2.1,1.5,2.2,1.7c0.4,0.4,0.7,0.9,1,1.4c0.2,0.4,0.3,0.9,0.7,1.2c0.2,0.2,0.5,0.1,0.5-0.1
				C283.6,659.9,282.1,658.2,281.2,657.4z"/>
			<path class="st32" d="M292.2,597.7c-0.5,1-1,2-1.6,2.9c-0.6,0.9-1.5,1.7-2,2.6c-0.1,0.3,0.1,0.5,0.4,0.4c1.9-0.9,3.2-3.7,3.8-5.6
				C293,597.6,292.4,597.3,292.2,597.7z"/>
			<path class="st32" d="M228,623.8c-0.4,0-0.4,0.6,0,0.6c0.9,0.1,1.7,0.3,2.6,0.8c0.7,0.4,1.1,1.1,1.8,1.5c0.2,0.1,0.4-0.1,0.4-0.3
				C232.3,624.7,229.6,623.7,228,623.8z"/>
			<path class="st32" d="M229.8,601.8c-0.5-0.6-1.6-1.9-2.5-1.7c-0.1,0-0.2,0.1-0.2,0.2c-0.1,0.3,0,0.4,0.3,0.6c0.1,0,0.2,0.1,0.3,0
				h0.1c0,0,0,0,0-0.1c0.1,0.1,0.1,0.3,0.3,0.3c0.2,0.2,0.4,0.4,0.6,0.5c0.3,0.3,0.7,0.7,1,1.1c0.5,0.6,0.8,1.5,1.4,2
				c0.2,0.2,0.5,0.1,0.5-0.2C231.3,603.5,230.5,602.5,229.8,601.8z"/>
			<path class="st32" d="M194.9,73.2c-3.4-9.8-9.6-19.1-17.4-26c-0.3-0.3-0.7,0.1-0.4,0.4c6.9,7.6,12.9,15.5,16.4,25.2
				c1.9,5.2,2.9,10.7,3.1,16.2c0.1,2.9-0.1,5.8-0.5,8.6c-0.4,2.6-1.4,5.2-1.8,7.8c-0.1,0.4,0.5,0.8,0.8,0.3c1.4-2.3,1.8-5.2,2.2-7.8
				c0.5-2.7,0.6-5.4,0.6-8.1C197.9,84.2,196.7,78.6,194.9,73.2z"/>
			<path class="st32" d="M191.8,107.8c-1.5,1.1-2.5,2.9-3.7,4.2c-1.5,1.7-3.3,3.2-4.9,4.7c-0.3,0.3,0.1,0.8,0.4,0.6
				c1.8-1.2,3.3-2.6,4.7-4.1c1.3-1.4,3.2-3.2,3.8-5.1C192.2,107.9,192,107.7,191.8,107.8z"/>
			<path class="st32" d="M124.1,77.2c-5.5,3.1-11,6.2-16.7,8.8c-6.2,2.9-12.7,5-19.2,7.2v0.1c12.5-3.1,25.3-8.7,36-15.9
				C124.3,77.3,124.2,77.1,124.1,77.2z"/>
			<path class="st32" d="M169.4,127.5c-3.1,0.8-6.1,2.2-9.2,3.1c-3.5,1-7.2,1.7-10.9,1.7c-6.8,0.2-12.4-2.2-17.9-5.9
				c-0.2-0.1-0.3,0.1-0.2,0.3c4.1,4.9,11.3,6.6,17.4,6.8c3.5,0.1,7-0.5,10.4-1.3c3.6-0.9,7.6-2.1,10.7-4.1
				C170,127.9,169.8,127.5,169.4,127.5z"/>
			<path class="st32" d="M151.9,106c-3.2-3.6-8.6-5.4-13.2-6.6c-5-1.3-10.4-1.4-15.4-0.3c-0.1,0-0.1,0.3,0,0.3
				c4.9-0.6,9.6-0.4,14.4,0.7c5.2,1.2,9.1,4.1,13.8,6.3C151.9,106.6,152.1,106.3,151.9,106z"/>
			<path class="st32" d="M83.3,123.2c-0.1,3.6-0.7,7-1.8,10.4c-1.2,3.7-3.1,6.8-5,10.2c-0.1,0.2,0.2,0.4,0.3,0.2
				c4.9-5.5,7-13.7,7.3-20.9C84.2,122.6,83.3,122.6,83.3,123.2z"/>
			<path class="st32" d="M72.4,81.1c-2.9,9.5-6.7,18.5-10.3,27.8c0,0.1,0.1,0.2,0.2,0.1c4.4-8.8,7.6-18.3,10.6-27.7
				C73,80.9,72.5,80.8,72.4,81.1z"/>
			<path class="st32" d="M241.3,90.9c-0.3-10.1-2.4-20.2-6.4-29.5c-6.7-15.7-20-29.9-36.5-35.1c-0.5-0.2-0.7,0.6-0.2,0.7
				c15.9,6.5,28.2,18.8,35.3,34.4c4.2,9.2,6.1,19.4,6.5,29.4c0.2,4.9-0.1,9.8-0.7,14.7c-0.6,5.4-2.2,10.6-3.1,15.9
				c-0.1,0.7,0.8,1,1.1,0.3c1.9-4.8,2.6-10.2,3.3-15.2C241.2,101.4,241.5,96.2,241.3,90.9z"/>
			<path class="st32" d="M234.3,129.1c-1,1.6-1.6,3.6-2.4,5.3c-0.9,2.1-1.9,4-2.9,6c-0.2,0.5,0.5,0.9,0.7,0.4
				c1.9-3.4,4.5-7.7,5.1-11.6C234.9,129,234.5,128.8,234.3,129.1z"/>
			<path class="st32" d="M435.8,244.8c-9.5-7.5-20.6-13.3-31.6-18.2c-11.2-4.9-22.8-8.6-34.7-11.3c-24.1-5.5-49.3-6.5-73.9-3.5
				c-2.8,0.3-5.5,0.9-8.2,1.3c-0.2,0-0.1,0.4,0.1,0.3c49.7-6.8,102.7,1.3,144.5,30.1c1,0.7,2,1.4,3.1,2.1
				C435.7,246.1,436.3,245.2,435.8,244.8z"/>
			<path class="st32" d="M455.9,257.1c-1.7-1.9-4.2-3.4-6.3-4.7c-2.2-1.3-4.6-2.6-7.1-3.4c-0.3-0.1-0.6,0.4-0.2,0.6
				c2.2,1.3,4.6,2.4,6.8,3.7c2.2,1.3,4.2,3.1,6.4,4.3C455.9,257.9,456.2,257.4,455.9,257.1z"/>
			<path class="st32" d="M266,251.2c-6.4-0.3-12.8,2-18,5.6c-5.7,4-9.4,9.9-11.4,16.5c-2.5,8-3.4,16.8-3.7,25.1
				c-0.1,4.3,0,8.7,0.4,13s0.8,8.8,2.2,12.9c0,0.1,0.2,0.1,0.2,0c-0.3-3.7-1.1-7.4-1.4-11.1c-0.4-4-0.6-8.1-0.5-12.1
				c0.1-8.2,1-16.4,3-24.4c1.7-6.9,4.9-13.1,10.4-17.7c5.3-4.5,12.1-6.6,19-6.7C266.6,252.2,266.6,251.2,266,251.2z"/>
			<path class="st32" d="M281.1,250.7c-1.4-0.1-2.8,0.2-4.2,0.3c-1.6,0.1-3.3,0.1-4.9,0.2c-0.3,0-0.4,0.5-0.1,0.6
				c2.8,0.4,6.6,0.6,9.2-0.4C281.5,251.1,281.4,250.7,281.1,250.7z"/>
			<path class="st32" d="M541.5,297.8c-2.7-5.9-5.7-11.7-9.3-17c-6.1-9-15.3-17.2-26.4-19c-0.2,0-0.3,0.3-0.1,0.3
				c11.3,2.8,19.9,10.2,26.3,19.7c3.3,4.9,6,10.3,8.4,15.7c2.6,5.6,4.9,11.1,5.8,17.2c0,0.3,0.5,0.2,0.5-0.1
				C546.8,308.7,543.9,303.1,541.5,297.8z"/>
			<path class="st32" d="M378.7,509.5c-0.1-0.6-0.9-0.6-0.9,0c-0.4,5.6-0.8,10.8-2.5,16.3c-1.7,5.6-4.3,10.9-7.1,16.1
				c-4.8,8.9-10.4,18.9-20.7,22.2c-0.3,0.1-0.2,0.6,0.2,0.5c10.1-2.3,15.9-12.5,20.7-20.8c3-5.2,5.6-10.6,7.5-16.2
				C377.8,522,379.4,515.4,378.7,509.5z"/>
			<path class="st32" d="M340.7,564.2c-0.6-0.3-1.3-0.4-2-0.5s-1.5-0.2-2.2,0c-0.3,0.1-0.3,0.5-0.1,0.6c0.6,0.3,1.3,0.3,2,0.4
				c0.8,0.1,1.5,0.2,2.2,0C340.8,564.6,340.9,564.3,340.7,564.2z"/>
			<path class="st32" d="M308.4,512c-1,1.5-1.5,3.3-2.3,4.9c-0.8,1.6-1.7,3.2-2.6,4.7c-2.1,3.4-4.7,6.5-7.5,9.3
				c-2.7,2.7-5.7,5-8.9,7c-3.3,2.1-6.8,3.4-10.3,5.1c-0.4,0.2-0.1,0.7,0.3,0.7c7.4-1.6,14.4-6.7,19.8-11.9c2.8-2.7,5.2-5.8,7.4-9
				c2-3,4.6-6.9,5-10.6C309.2,511.7,308.6,511.7,308.4,512z"/>
			<path class="st32" d="M270.6,542.1c-0.6-0.2-1.2-0.2-1.8-0.1c-0.7,0-1.3,0-2,0.1c-0.5,0-0.5,0.7,0,0.8c0.7,0,1.3,0.1,2,0.1
				c0.6,0,1.2,0.1,1.8-0.1C270.9,542.6,270.9,542.2,270.6,542.1z"/>
			<path class="st32" d="M347.5,574.6c-2.1,7.4-3.9,14.9-5.9,22.4c-1,3.7-2,7.5-3,11.2s-2.4,7.4-3,11.2c-0.1,0.4,0.5,0.6,0.7,0.2
				c1.4-3.5,2.2-7.4,3.2-11.1c1-3.7,2-7.4,3-11.2c2-7.4,4-14.9,5.7-22.4C348.3,574.3,347.7,574.1,347.5,574.6z"/>
			<path class="st32" d="M274.1,555.2c-2.6,4.5-5,9.2-7.3,13.9c-1,2.1-1.8,4.3-2.5,6.5c-0.9,2.5-2,4.6-3.4,6.9
				c-0.2,0.3,0.2,0.5,0.4,0.3c3.5-2.8,4.2-8.6,5.9-12.5c2.2-5,5.1-9.7,7.4-14.7C274.9,555.2,274.3,554.9,274.1,555.2z"/>
			<path class="st32" d="M109.8,407.9c-9.4-7.8-18-16-25.3-25.9c-7.2-9.8-12.9-20.7-17.3-32c-9.9-25.9-11.8-54.3-8.3-81.6
				c0.7-5.3,1.6-10.5,2.6-15.7c0.1-0.4-0.6-0.6-0.7-0.2c-11.9,49.7-2,106.5,34.2,144c4.3,4.5,9,8.8,14.1,12.3
				C109.7,409.1,110.3,408.3,109.8,407.9z"/>
			<path class="st32" d="M126.8,421.5c-1.7-1.5-3.7-2.5-5.6-3.6c-2.4-1.4-4.8-2.7-7.4-3.8c-0.4-0.2-0.8,0.4-0.4,0.6
				c2.2,1.2,4.4,2.3,6.6,3.5c2.2,1.2,4.2,2.7,6.5,3.7C126.7,422,127,421.7,126.8,421.5z"/>
		</g>
		<path class="st14" d="M0,11.4c0.1-0.2,0.4-0.3,0.6-0.1s0.1,0.5-0.1,0.6"/>
	</g>
</g>
</svg>
